<svg xmlns="http://www.w3.org/2000/svg" viewBox="0 0 1200 850"><title>character</title><g id="Layer_4" data-name="Layer 4"><rect width="1200" height="850" style="fill:#fff"/></g><g id="index"><polyline points="651.81 151.22 596.46 183.12 541.5 151.17 595.25 119 651.81 151.22" style="fill:#fff;stroke:#ff00bd;stroke-linecap:round;stroke-linejoin:round;stroke-width:2px"/></g><g id="StepUp"><path d="M575.23,138.41l2-2.09,12.55,12.55-1.4,1.38Z" style="fill:#916b4e"/><path d="M570.45,143.18l4.77-4.77,13.16,11.84-3,.78,1.1,1.1a9.26,9.26,0,0,1,.28,4.31L585.24,158Z" style="fill:#aa7e5c"/><path d="M577.24,136.32l2.4-2.4,12.55,12.55-2.4,2.4Z" style="fill:#e0c1a2"/><path d="M586.72,130.45a8.76,8.76,0,0,1,6.22,2.69h0a8.59,8.59,0,0,1,2.65,6.19,8.36,8.36,0,0,1-2.55,6.22l-.88.88-12.55-12.55.88-.88A8.44,8.44,0,0,1,586.72,130.45Z" style="fill:#eccfb1"/><path d="M613.29,127.14v-.2l14.81-2.69q1.71,2.35.25,5.6l-1.05-.2Z" style="fill:#e7e2da"/><path d="M612.74,127l-.5-3,15.4-2.85q1.3.6.5,3l-14.9,2.7Z" style="fill:#637480"/><path d="M627.34,129.64a80.43,80.43,0,0,1,.05,10.8,14.62,14.62,0,0,1-7.55,3.75,53.64,53.64,0,0,1-6.55-17Z" style="fill:#ffe0b1"/><path d="M612.84,114.54a7.42,7.42,0,0,1,5-3.25h.05a7,7,0,0,1,1.15-.1q5-.15,8.55,10L612.19,124l-.65-3.6A7.73,7.73,0,0,1,612.84,114.54Z" style="fill:#7e95a3"/><path d="M629.75,138.25a17.6,17.6,0,0,0-6-5.81l-8.66,5a1.07,1.07,0,0,0-.56,1.6l.29.49q5.74,11,11.94,7.46a21.62,21.62,0,0,0,4.21-3q1.34-1.19.74-2.27l-.11-.23q-.76-1.3-1.5-2.5h0l-.4-.72m-12.9,2.27q-.16-.42.76-1.4a13.83,13.83,0,0,1,2.37-2,17.37,17.37,0,0,1,2.67-1.44q1.23-.43,1.38-.06t-.67,1.37a14.8,14.8,0,0,1-5.07,3.48q-1.14.47-1.39.06Z" style="fill:#ffe0b1"/><path d="M617.61,139.16q-.93,1-.76,1.4t1.44,0a14.8,14.8,0,0,0,5.07-3.48q.88-1,.67-1.37t-1.38.06a17.37,17.37,0,0,0-2.67,1.44,13.83,13.83,0,0,0-2.37,2m12.53-.2q1.87-5-6.34-6.48a17.6,17.6,0,0,1,6,5.81l.4.72Z" style="fill:#e7cba0"/><path d="M612,153.56l-2.09-2L622.42,139l1.41,1.41Z" style="fill:#916b4e"/><path d="M616.73,158.34,612,153.57l11.88-13.15.78,3,1.1-1.1A9.26,9.26,0,0,1,630,142l1.52,1.52Z" style="fill:#aa7e5c"/><path d="M609.87,151.55l-2.4-2.4L620,136.6l2.4,2.4Z" style="fill:#e0c1a2"/><path d="M604,142.07a8.76,8.76,0,0,1,2.69-6.22h0a8.59,8.59,0,0,1,6.19-2.65,8.36,8.36,0,0,1,6.22,2.55l.88.88-12.55,12.55-.88-.88A8.44,8.44,0,0,1,604,142.07Z" style="fill:#eccfb1"/><path d="M619.84,140.44l-.28-4L594,138.21,583.1,139l-2.44.17.28,4,38.91-2.69m-33-26.39q-.73-1.1-1.66-2.29l-6.38.44,1.2,17.41q12.72-3.08,8.67-12.28l-2.38-1a6.53,6.53,0,0,1,.55-2.24m30.86-4.54-6.09.42a10.18,10.18,0,0,1,1.05,6.54q-.77,6.22,6,7.45Z" style="fill:#b8824d"/><path d="M601.16,122.59l10.45-12.65-23.14,1.6Z" style="fill:#e0c79a"/><path d="M612.67,116.48a10.18,10.18,0,0,0-1.05-6.54l-10.45,12.65,11.51-6.11m-25.83-2.42a6.53,6.53,0,0,0-.55,2.24l2.38,1,12.49,5.25-12.69-11a8.71,8.71,0,0,0-1.64,2.55Z" style="fill:#637480"/><path d="M588.67,117.33q4,9.19-8.67,12.28l.66,9.48,2.44-.17,6.88-5.54,4,4.78,25.54-1.77-.86-12.47q-6.8-1.23-6-7.45l-11.51,6.11-12.49-5.25m13.89,8.76a1.37,1.37,0,0,1-.57-1,1.53,1.53,0,0,1,.42-1.13,1.45,1.45,0,0,1,2-.19l.06.05a1.61,1.61,0,0,1,.52,1.07,1.49,1.49,0,0,1-2.47,1.22m-1.05,4.38a25.21,25.21,0,0,1,6.18.22q2.34.49,2.64,1.27L593,133.18q.14-.81,2.39-1.62a25.21,25.21,0,0,1,6.09-1.07m-16.33-18.72q.93,1.19,1.66,2.29a8.71,8.71,0,0,1,1.63-2.52Z" style="fill:#7e95a3"/><path d="M607.69,130.71a29.42,29.42,0,0,0-12.27.85q-2.25.81-2.39,1.62l17.31-1.2Q610,131.19,607.69,130.71Z" style="fill:#738895"/><path d="M602,125.08a1.37,1.37,0,0,0,.57,1,1.5,1.5,0,0,0,2.47-1.22,1.61,1.61,0,0,0-.52-1.07,1.45,1.45,0,0,0-2,.08l-.05.06a1.53,1.53,0,0,0-.42,1.13m-12,8.3-6.89,5.56,10.92-.76Z" style="fill:#e7e2da"/><path d="M580.73,128.52l.14-.15-11.55-9.79q-2.66,1.17-3,4.72l1,.35Z" style="fill:#e7e2da"/><path d="M581.26,128.71l1.91-2.3-11.92-10.16q-1.43-.13-1.93,2.35l11.55,9.79Z" style="fill:#637480"/><path d="M567.31,123.66a80.43,80.43,0,0,0-5.44,9.33,14.62,14.62,0,0,0,4.66,7,53.64,53.64,0,0,0,14.2-11.49Z" style="fill:#ffe0b1"/><path d="M587.42,117.83a7.42,7.42,0,0,0-2.75-5.34h0a7,7,0,0,0-.95-.66q-4.3-2.65-12.43,4.43l11.91,10.17,2.36-2.79A7.73,7.73,0,0,0,587.42,117.83Z" style="fill:#7e95a3"/><path d="M572.82,141.5a17.6,17.6,0,0,0,2.05-8.06l-8.63-5a1.07,1.07,0,0,0-1.66.32l-.28.49q-6.65,10.47-.49,14.07a21.62,21.62,0,0,0,4.74,2.12q1.7.57,2.33-.5l.14-.21q.74-1.31,1.41-2.55h0l.42-.71m-8.41-10q.28-.35,1.59,0a13.83,13.83,0,0,1,2.9,1.06,17.37,17.37,0,0,1,2.58,1.59q1,.85.74,1.17t-1.52.11a14.8,14.8,0,0,1-5.55-2.65q-1-.9-.78-1.29Z" style="fill:#ffe0b1"/><path d="M566,131.42q-1.31-.32-1.59,0t.74,1.24a14.8,14.8,0,0,0,5.55,2.65q1.27.28,1.52-.11t-.74-1.17a17.37,17.37,0,0,0-2.58-1.59,13.83,13.83,0,0,0-2.9-1.06m6.43,10.75q5.27-.88,2.44-8.73a17.6,17.6,0,0,1-2.05,8.06l-.42.71Z" style="fill:#e7cba0"/><path d="M598.54,119.19a12.68,12.68,0,0,0,7.15-2,6.67,6.67,0,0,0,2.45-2.6h-19.2a6.67,6.67,0,0,0,2.45,2.6A12.68,12.68,0,0,0,598.54,119.19Z" style="fill:#d7bd93"/><path d="M617.89,110.09a1,1,0,0,1,.1-.45,65.18,65.18,0,0,0,.65-7.65q-1.15,6.2-5.8,4.6a36,36,0,0,0-14.35-2.65,38.22,38.22,0,0,0-11.1,1.5q-1.2.35-2.35.8-5.2,2.4-8.45-8.85a68.35,68.35,0,0,0,.7,12.75,7.31,7.31,0,0,0,.25,1,3.78,3.78,0,0,0,.5,1.25,4.55,4.55,0,0,0,4.35,2.25h30.35q4.2,0,5-4A4.62,4.62,0,0,0,617.89,110.09Z" style="fill:#e7e2da"/><path d="M577.29,89.54a77.16,77.16,0,0,0-.7,7.85q3.25,11.25,8.45,8.85,1.15-.45,2.35-.8a38.22,38.22,0,0,1,11.1-1.5,36,36,0,0,1,14.35,2.65q4.65,1.6,5.8-4.6,0-2.7-.05-5.45-.2-3.5-.75-7.1-.65-4.45-5.1-4.45H582.39Q578,85,577.29,89.54Z" style="fill:#ffe0b1"/><path d="M606.64,92.49l-.65,3.2h8.8q-2.75-3.45-8.15-3.2m-11.5,4.3-.65-3.2q-5.4-.25-8.15,3.2Z" style="fill:#544b4b"/><path d="M590.1,98.94a4.37,4.37,0,0,0-.1,1,3.88,3.88,0,0,0,.6,2.2,3.26,3.26,0,0,0,.3.35,1.6,1.6,0,0,0,2.5,0,1.33,1.33,0,0,0,.25-.35,3.66,3.66,0,0,0,.65-2.2,4.37,4.37,0,0,0-.1-1h-4.1m21.05,1a4.37,4.37,0,0,0-.1-1H607a4.37,4.37,0,0,0-.1,1,3.88,3.88,0,0,0,.6,2.2,3.26,3.26,0,0,0,.3.35,1.6,1.6,0,0,0,2.5,0,1.33,1.33,0,0,0,.25-.35,3.66,3.66,0,0,0,.65-2.2m-5.6,5.75a1.08,1.08,0,0,0-.6-.2H602.1v3h-7a3.85,3.85,0,0,0,.75.9,5.81,5.81,0,0,0,4.25,1.8,5.73,5.73,0,0,0,4.2-1.75l.05,0a6.33,6.33,0,0,0,1.2-1.65,4.78,4.78,0,0,0,.4-1,1.16,1.16,0,0,0-.05-.6.81.81,0,0,0-.31-.5Z" style="fill:#7f7058"/><path d="M590,99.89a4.37,4.37,0,0,1,.1-1h-2.25a4.37,4.37,0,0,0-.1,1,3.78,3.78,0,0,0,.9,2.55l.1.1a3.54,3.54,0,0,0,2.65,1.15,3.23,3.23,0,0,0,2.55-1.15l.1-.1a3.56,3.56,0,0,0,1-2.55,4.37,4.37,0,0,0-.1-1h-.75a4.37,4.37,0,0,1,.1,1,3.66,3.66,0,0,1-.65,2.2,1.33,1.33,0,0,1-.25.35,1.6,1.6,0,0,1-2.5,0,3.26,3.26,0,0,1-.3-.35,3.88,3.88,0,0,1-.6-2.2m21.05-1a4.37,4.37,0,0,1,.1,1,3.66,3.66,0,0,1-.65,2.2,1.33,1.33,0,0,1-.25.35,1.6,1.6,0,0,1-2.5,0,3.26,3.26,0,0,1-.3-.35,3.88,3.88,0,0,1-.6-2.2,4.37,4.37,0,0,1,.1-1h-.5a4.37,4.37,0,0,0-.1,1,3.78,3.78,0,0,0,.9,2.55l.1.1a3.54,3.54,0,0,0,2.65,1.15,3.23,3.23,0,0,0,2.55-1.15l.1-.1a3.56,3.56,0,0,0,1-2.55,4.37,4.37,0,0,0-.1-1H611.1m-9,9.5v-3h-6.85a.86.86,0,0,0-.55.2.76.76,0,0,0-.4.5.92.92,0,0,0,0,.6,3.26,3.26,0,0,0,.35,1,5.58,5.58,0,0,0,.45.75Z" style="fill:#fff"/><path d="M600.79,88.19a40.32,40.32,0,0,0,15.45.2L612.1,69.64a5.39,5.39,0,0,1,1.1-3.1Q591.69,72,582.85,87.64A15.91,15.91,0,0,1,594,86.19a9.82,9.82,0,0,1,5.1,3.55Z" style="fill:#544b4b"/><path d="M612.1,69.64l4.1,18.75,2.4,8.15,1.1-16.75-7.6-10.15m1.1-3.1a2.64,2.64,0,0,1,1.5-.8q-8.6-1.25-19.95,3a2.85,2.85,0,0,0-.5.15A99.41,99.41,0,0,0,581.2,74L580,77.09l-3.1-1.35-3,6.75q-2.8,7.5,3,20l6-14.9Q591.74,72,613.24,66.54Z" style="fill:#5d5454"/></g><g id="standUp"><path d="M597.54,151.54l.05-2.9H579.84v2Z" style="fill:#916b4e"/><path d="M597.54,158.25V151.5l-17.7-.9,1.55,2.65h-1.55a9.26,9.26,0,0,0-3.25,2.85v2.15Z" style="fill:#aa7e5c"/><path d="M597.59,148.64v-3.39H579.84v3.4Z" style="fill:#e0c1a2"/><path d="M595,137.79a8.76,8.76,0,0,0-6.3-2.5h-.05a8.59,8.59,0,0,0-6.25,2.5,8.36,8.36,0,0,0-2.6,6.2v1.26h17.75V144A8.44,8.44,0,0,0,595,137.79Z" style="fill:#eccfb1"/><path d="M600.79,151.54l-.05-2.9h17.75v2Z" style="fill:#916b4e"/><path d="M600.79,158.25V151.5l17.7-.9-1.55,2.65h1.55a9.26,9.26,0,0,1,3.25,2.85v2.15Z" style="fill:#aa7e5c"/><path d="M600.74,148.64v-3.39h17.75v3.4Z" style="fill:#e0c1a2"/><path d="M603.29,137.79a8.76,8.76,0,0,1,6.3-2.5h.05a8.59,8.59,0,0,1,6.25,2.5,8.36,8.36,0,0,1,2.6,6.2v1.26H600.74V144A8.44,8.44,0,0,1,603.29,137.79Z" style="fill:#eccfb1"/><path d="M619.19,143.59v-4h-39v4h39M588.1,115q-.65-1.15-1.5-2.4h-6.4V130q12.9-2.2,9.5-11.65l-2.3-1.2a6.53,6.53,0,0,1,.7-2.2m31.1-2.4h-6.1a10.18,10.18,0,0,1,.6,6.6q-1.2,6.15,5.5,7.85Z" style="fill:#b8824d"/><path d="M601.79,124.49l11.3-11.9h-23.2Z" style="fill:#e0c79a"/><path d="M613.69,119.19a10.18,10.18,0,0,0-.6-6.6l-11.3,11.9,11.9-5.3m-25.6-4.2a6.53,6.53,0,0,0-.7,2.2l2.3,1.2,12.1,6.1-11.9-11.9a8.71,8.71,0,0,0-1.79,2.4Z" style="fill:#637480"/><path d="M589.69,118.39q3.4,9.45-9.5,11.65v9.5h2.45l7.25-5,3.7,5h25.6V127q-6.7-1.7-5.5-7.85l-11.9,5.3-12.1-6.1m13.25,9.7a1.37,1.37,0,0,1-.5-1,1.53,1.53,0,0,1,.5-1.1,1.45,1.45,0,0,1,2.05,0l.05,0a1.61,1.61,0,0,1,.45,1.1,1.49,1.49,0,0,1-2.55,1m-1.35,4.3a25.21,25.21,0,0,1,6.15.65q2.3.65,2.55,1.45H592.94q.2-.8,2.5-1.45a25.21,25.21,0,0,1,6.15-.65m-15-19.8q.85,1.25,1.5,2.4a8.71,8.71,0,0,1,1.8-2.4Z" style="fill:#7e95a3"/><path d="M607.74,133a29.42,29.42,0,0,0-12.3,0q-2.3.65-2.5,1.45h17.35Q610,133.69,607.74,133Z" style="fill:#738895"/><path d="M602.44,127a1.37,1.37,0,0,0,.5,1,1.5,1.5,0,0,0,2.55-1,1.61,1.61,0,0,0-.45-1.1,1.45,1.45,0,0,0-2.05,0l-.05,0a1.53,1.53,0,0,0-.5,1.1m-12.55,7.45-7.25,5h10.95Z" style="fill:#e7e2da"/><path d="M584.28,127.93l.1-.16-13.76-6.21q-2.2,1.6-1.55,4.82l1.06.1Z" style="fill:#e7e2da"/><path d="M584.83,128l1.17-2.44-14.21-6.47q-1.4.19-1.18,2.49l13.76,6.21Z" style="fill:#637480"/><path d="M570.1,126.47a65.52,65.52,0,0,0-2.57,9.4,15.27,15.27,0,0,0,6.42,5.22,45.67,45.67,0,0,0,10.31-13.17Z" style="fill:#ffe0b1"/><path d="M587.66,117.06a7.53,7.53,0,0,0-4.12-4.14h0a7.74,7.74,0,0,0-1.09-.38q-4.84-1.44-10.61,6.55l14.21,6.47,1.47-3A6.44,6.44,0,0,0,587.66,117.06Z" style="fill:#7e95a3"/><path d="M581.36,143a17.6,17.6,0,0,0-2.25-8h-10q-1.24,0-1.28,1.11v.57q-.52,12.39,6.61,12.43a21.62,21.62,0,0,0,5.16-.53q1.75-.36,1.77-1.6V143m-12.31-4.49q.07-.45,1.36-.83a13.83,13.83,0,0,1,3-.53,17.37,17.37,0,0,1,3,.09q1.28.24,1.23.64t-1.26.85a14.8,14.8,0,0,1-6.13.48q-1.23-.27-1.21-.73Z" style="fill:#ffe0b1"/><path d="M570.41,137.66q-1.29.38-1.36.83t1.26.7a14.8,14.8,0,0,0,6.13-.48q1.24-.39,1.26-.85t-1.23-.64a17.37,17.37,0,0,0-3-.09,13.83,13.83,0,0,0-3,.53m10.95,6.09q4.12-3.4-2.25-8.78a17.6,17.6,0,0,1,2.25,8Z" style="fill:#e7cba0"/><path d="M612.56,126.93l-.1-.16,13.76-6.21q2.2,1.6,1.55,4.82l-1.06.1Z" style="fill:#e7e2da"/><path d="M612,127l-1.17-2.44,14.21-6.47q1.4.19,1.18,2.49l-13.76,6.21Z" style="fill:#637480"/><path d="M626.72,125.47a65.52,65.52,0,0,1,2.57,9.4,15.27,15.27,0,0,1-6.42,5.22,45.67,45.67,0,0,1-10.31-13.17Z" style="fill:#ffe0b1"/><path d="M609.18,116.06a7.53,7.53,0,0,1,4.12-4.14h0a7.74,7.74,0,0,1,1.09-.38q4.84-1.44,10.61,6.55l-14.21,6.47-1.47-3A6.44,6.44,0,0,1,609.18,116.06Z" style="fill:#7e95a3"/><path d="M615.53,142.42a17.6,17.6,0,0,1,2.25-8h10q1.24,0,1.28,1.11v.57q.52,12.39-6.61,12.43a21.62,21.62,0,0,1-5.16-.53q-1.75-.36-1.77-1.6v-3.94M627.83,138q-.07-.45-1.36-.83a13.83,13.83,0,0,0-3-.53,17.37,17.37,0,0,0-3,.09q-1.28.24-1.23.64t1.26.85a14.8,14.8,0,0,0,6.13.48q1.23-.27,1.21-.73Z" style="fill:#ffe0b1"/><path d="M626.48,137.11q1.29.38,1.36.83t-1.26.7a14.8,14.8,0,0,1-6.13-.48q-1.24-.39-1.26-.85t1.23-.64a17.37,17.37,0,0,1,3-.09,13.83,13.83,0,0,1,3,.53m-10.89,6.14q-4.12-3.4,2.25-8.78a17.6,17.6,0,0,0-2.25,8Z" style="fill:#e7cba0"/><path d="M598.54,119.69a12.68,12.68,0,0,0,7.15-2,6.67,6.67,0,0,0,2.45-2.6h-19.2a6.67,6.67,0,0,0,2.45,2.6A12.68,12.68,0,0,0,598.54,119.69Z" style="fill:#d7bd93"/><path d="M617.89,110.59a1,1,0,0,1,.1-.45,65.18,65.18,0,0,0,.65-7.65q-1.15,6.2-5.8,4.6a36,36,0,0,0-14.35-2.65,38.22,38.22,0,0,0-11.1,1.5q-1.2.35-2.35.8-5.2,2.4-8.45-8.85a68.35,68.35,0,0,0,.7,12.75,7.31,7.31,0,0,0,.25,1,3.78,3.78,0,0,0,.5,1.25,4.55,4.55,0,0,0,4.35,2.25h30.35q4.2,0,5-4A4.62,4.62,0,0,0,617.89,110.59Z" style="fill:#e7e2da"/><path d="M577.29,90a77.16,77.16,0,0,0-.7,7.85q3.25,11.25,8.45,8.85,1.15-.45,2.35-.8a38.22,38.22,0,0,1,11.1-1.5,36,36,0,0,1,14.35,2.65q4.65,1.6,5.8-4.6,0-2.7-.05-5.45-.2-3.5-.75-7.1-.65-4.45-5.1-4.45H582.39Q578,85.49,577.29,90Z" style="fill:#ffe0b1"/><path d="M606.64,93l-.65,3.2h8.8Q612,92.74,606.64,93M595.1,97.25l-.65-3.2q-5.4-.25-8.15,3.2Z" style="fill:#544b4b"/><path d="M590.1,99.44a4.37,4.37,0,0,0-.1,1,3.88,3.88,0,0,0,.6,2.2,3.26,3.26,0,0,0,.3.35,1.6,1.6,0,0,0,2.5,0,1.33,1.33,0,0,0,.25-.35,3.66,3.66,0,0,0,.65-2.2,4.37,4.37,0,0,0-.1-1h-4.1m21.05,1a4.37,4.37,0,0,0-.1-1H607a4.37,4.37,0,0,0-.1,1,3.88,3.88,0,0,0,.6,2.2,3.26,3.26,0,0,0,.3.35,1.6,1.6,0,0,0,2.5,0,1.33,1.33,0,0,0,.25-.35,3.66,3.66,0,0,0,.65-2.2m-5.6,5.75a1.08,1.08,0,0,0-.6-.2H602.1v3h-7a3.85,3.85,0,0,0,.75.9,5.81,5.81,0,0,0,4.25,1.8,5.73,5.73,0,0,0,4.2-1.75l.05,0a6.33,6.33,0,0,0,1.2-1.65,4.78,4.78,0,0,0,.4-1,1.16,1.16,0,0,0-.05-.6.81.81,0,0,0-.31-.5Z" style="fill:#7f7058"/><path d="M590,100.39a4.37,4.37,0,0,1,.1-1h-2.25a4.37,4.37,0,0,0-.1,1,3.78,3.78,0,0,0,.9,2.55l.1.1a3.54,3.54,0,0,0,2.65,1.15A3.23,3.23,0,0,0,594,103l.1-.1a3.56,3.56,0,0,0,1-2.55,4.37,4.37,0,0,0-.1-1h-.75a4.37,4.37,0,0,1,.1,1,3.66,3.66,0,0,1-.65,2.2,1.33,1.33,0,0,1-.25.35,1.6,1.6,0,0,1-2.5,0,3.26,3.26,0,0,1-.3-.35,3.88,3.88,0,0,1-.6-2.2m21.05-1a4.37,4.37,0,0,1,.1,1,3.66,3.66,0,0,1-.65,2.2,1.33,1.33,0,0,1-.25.35,1.6,1.6,0,0,1-2.5,0,3.26,3.26,0,0,1-.3-.35,3.88,3.88,0,0,1-.6-2.2,4.37,4.37,0,0,1,.1-1h-.5a4.37,4.37,0,0,0-.1,1,3.78,3.78,0,0,0,.9,2.55l.1.1a3.54,3.54,0,0,0,2.65,1.15,3.23,3.23,0,0,0,2.55-1.15l.1-.1a3.56,3.56,0,0,0,1-2.55,4.37,4.37,0,0,0-.1-1H611.1m-9,9.5v-3h-6.85a.86.86,0,0,0-.55.2.76.76,0,0,0-.4.5.92.92,0,0,0,0,.6,3.26,3.26,0,0,0,.35,1,5.58,5.58,0,0,0,.45.75Z" style="fill:#fff"/><path d="M600.79,88.69a40.32,40.32,0,0,0,15.45.2L612.1,70.14a5.39,5.39,0,0,1,1.1-3.1q-21.51,5.43-30.35,21.1A15.91,15.91,0,0,1,594,86.69a9.82,9.82,0,0,1,5.15,3.56Z" style="fill:#544b4b"/><path d="M612.1,70.14l4.1,18.75L618.6,97l1.1-16.75-7.6-10.15m1.1-3.1a2.64,2.64,0,0,1,1.5-.8q-8.6-1.25-19.95,3a2.85,2.85,0,0,0-.5.15,99.41,99.41,0,0,0-13.05,5.1L580,77.59l-3.1-1.35-3,6.75q-2.8,7.5,3,20l6-14.9Q591.74,72.47,613.24,67Z" style="fill:#5d5454"/></g><g id="stepDown"><path d="M578,141.83l1.41-2.54,15.37,8.88-1,1.73Z" style="fill:#916b4e"/><path d="M574.59,147.67l3.38-5.85,15.78,8.07-2.65,1.53,1.34.78a9.26,9.26,0,0,1,1.39,4.09l-1.07,1.86Z" style="fill:#aa7e5c"/><path d="M579.38,139.25l1.7-2.94,15.37,8.94-1.7,2.94Z" style="fill:#e0c1a2"/><path d="M587,131.17a8.76,8.76,0,0,1,6.71,1h0a8.59,8.59,0,0,1,4.16,5.29,8.36,8.36,0,0,1-.85,6.67l-.62,1.08-15.31-8.86.63-1.08A8.44,8.44,0,0,1,587,131.17Z" style="fill:#eccfb1"/><path d="M602.76,125.14q0-.11,0-.2l14.89,2.75q.77,2.8-1.75,5.33l-.91-.56Z" style="fill:#e7e2da"/><path d="M602.28,124.85l.58-2.94,15.41,2.79q1,1-.59,3L602.79,125Z" style="fill:#637480"/><path d="M615,132.45a80.43,80.43,0,0,1-3.78,10.12,14.62,14.62,0,0,1-8.39.83,53.64,53.64,0,0,1-.09-18.26Z" style="fill:#ffe0b1"/><path d="M606.8,113.2a7.42,7.42,0,0,1,5.87-1.25h0a7,7,0,0,1,1.11.31q4.78,1.65,4.44,12.43l-15.41-2.79.67-3.6A7.73,7.73,0,0,1,606.8,113.2Z" style="fill:#7e95a3"/><path d="M614.2,141.39a17.6,17.6,0,0,0-3.51-7.54l-9.86,1.57q-1.22.18-1.09,1.3l.09.56q1.48,12.31,8.52,11.21a21.62,21.62,0,0,0,5-1.36q1.67-.64,1.49-1.86V145q-.25-1.48-.52-2.87h0l-.12-.82m-12.87-2.45q0-.45,1.21-1a13.83,13.83,0,0,1,2.92-1,17.37,17.37,0,0,1,3-.4q1.3,0,1.31.43t-1.11,1a14.8,14.8,0,0,1-6,1.46q-1.27,0-1.32-.43Z" style="fill:#ffe0b1"/><path d="M602.54,137.91q-1.21.58-1.21,1t1.36.49a14.8,14.8,0,0,0,6-1.46q1.16-.59,1.11-1t-1.31-.43a17.37,17.37,0,0,0-3,.4,13.83,13.83,0,0,0-2.92,1m11.78,4.25q3.52-4-3.64-8.31a17.6,17.6,0,0,1,3.51,7.54l.12.82Z" style="fill:#e7cba0"/><path d="M590,152.54v-2.9h17.75v2Z" style="fill:#916b4e"/><path d="M590,159.25V152.5l17.7-.9-1.55,2.65h1.55A9.26,9.26,0,0,1,611,157.1v2.15Z" style="fill:#aa7e5c"/><path d="M590,149.64v-3.39h17.75v3.4Z" style="fill:#e0c1a2"/><path d="M592.54,138.79a8.76,8.76,0,0,1,6.3-2.5h0a8.59,8.59,0,0,1,6.25,2.5,8.36,8.36,0,0,1,2.6,6.2v1.26H590V145A8.44,8.44,0,0,1,592.54,138.79Z" style="fill:#eccfb1"/><path d="M614.53,142.72l.16-4-25.58-1-10.94-.47-2.45-.1-.16,4,39,1.54m-29.95-29.8q-.6-1.17-1.4-2.46l-6.4-.25-.71,17.47q13-1.69,10-11.27l-2.25-1.29a6.53,6.53,0,0,1,.79-2.17m31.17-1.17-6.1-.24a10.18,10.18,0,0,1,.34,6.62q-1.44,6.1,5.19,8.06Z" style="fill:#b8824d"/><path d="M597.9,123l11.76-11.45-23.18-.91Z" style="fill:#e0c79a"/><path d="M610,118.13a10.18,10.18,0,0,0-.34-6.62L597.9,123l12.1-4.83m-25.41-5.21a6.53,6.53,0,0,0-.79,2.17l2.25,1.29,11.85,6.57-11.42-12.36a8.71,8.71,0,0,0-1.89,2.34Z" style="fill:#637480"/><path d="M586.1,116.38q3,9.58-10,11.27l-.37,9.49,2.45.1,7.44-4.76,3.5,5.19,25.58,1,.49-12.49q-6.63-2-5.19-8.06L597.9,123l-11.8-6.57M599,126.59a1.37,1.37,0,0,1-.46-1.07,1.53,1.53,0,0,1,.54-1.08,1.45,1.45,0,0,1,2.05,0l0,.05a1.61,1.61,0,0,1,.41,1.12,1.49,1.49,0,0,1-2.59,1m-1.52,4.24a25.21,25.21,0,0,1,6.12.89q2.27.74,2.49,1.55l-17.34-.68q.23-.79,2.56-1.35a25.21,25.21,0,0,1,6.17-.41m-14.21-20.38q.8,1.28,1.4,2.46a8.71,8.71,0,0,1,1.89-2.33Z" style="fill:#7e95a3"/><path d="M603.51,131.73a29.42,29.42,0,0,0-12.29-.48q-2.32.56-2.56,1.35l17.34.68Q605.78,132.47,603.51,131.73Z" style="fill:#738895"/><path d="M598.45,125.53a1.37,1.37,0,0,0,.46,1.07,1.5,1.5,0,0,0,2.59-1,1.61,1.61,0,0,0-.41-1.12,1.45,1.45,0,0,0-2-.13l-.05,0a1.53,1.53,0,0,0-.54,1.08m-12.83,7-7.45,4.77,10.94.43Z" style="fill:#e7e2da"/><path d="M583.54,125.82l.08-.19-14.25-5.14q-2.08,2-1.18,5.48h1.07Z" style="fill:#e7e2da"/><path d="M584.1,125.82l1-2.83-14.71-5.37q-1.38.38-1,2.88l14.25,5.14Z" style="fill:#637480"/><path d="M569.27,126a80.43,80.43,0,0,0-1.84,10.64,14.62,14.62,0,0,0,6.82,5,53.64,53.64,0,0,0,9.29-15.73Z" style="fill:#ffe0b1"/><path d="M586.1,113.47a7.42,7.42,0,0,0-4.44-4h0a7,7,0,0,0-1.12-.29q-5-1-10.1,8.49L585.1,123l1.24-3.44A7.73,7.73,0,0,0,586.1,113.47Z" style="fill:#7e95a3"/><path d="M581.54,140.85a17.6,17.6,0,0,0-2.53-7.92l-10,.31q-1.24,0-1.24,1.15V135q-.1,12.4,7,12.2a21.62,21.62,0,0,0,5.14-.71q1.74-.42,1.72-1.65v-.25q-.06-1.5-.15-2.91v-.78m-12.38-4.08q0-.45,1.33-.87a13.83,13.83,0,0,1,3-.63,17.36,17.36,0,0,1,3,0q1.29.2,1.25.6t-1.23.89a14.8,14.8,0,0,1-6.11.69Q569.1,137.25,569.1,136.78Z" style="fill:#ffe0b1"/><path d="M570.41,135.91q-1.28.42-1.33.87t1.28.66a14.8,14.8,0,0,0,6.11-.69q1.23-.43,1.23-.89t-1.25-.6a17.36,17.36,0,0,0-3,0,13.83,13.83,0,0,0-3,.63m11.15,5.71q4-3.54-2.55-8.7a17.6,17.6,0,0,1,2.53,7.92v.78Z" style="fill:#e7cba0"/><path d="M598.29,119.25a12.68,12.68,0,0,0,7.15-2,6.67,6.67,0,0,0,2.45-2.6h-19.2a6.67,6.67,0,0,0,2.45,2.6A12.68,12.68,0,0,0,598.29,119.25Z" style="fill:#d7bd93"/><path d="M617.64,110.19a1,1,0,0,1,.1-.45,65.18,65.18,0,0,0,.65-7.65q-1.15,6.2-5.8,4.6A36,36,0,0,0,598.24,104a38.22,38.22,0,0,0-11.1,1.5q-1.2.35-2.35.8-5.2,2.4-8.45-8.85a68.35,68.35,0,0,0,.7,12.75,7.31,7.31,0,0,0,.25,1,3.78,3.78,0,0,0,.5,1.25,4.55,4.55,0,0,0,4.35,2.25h30.35q4.2,0,5-4A4.61,4.61,0,0,0,617.64,110.19Z" style="fill:#e7e2da"/><path d="M577,89.64a77.16,77.16,0,0,0-.7,7.85q3.25,11.25,8.45,8.85,1.15-.45,2.35-.8a38.22,38.22,0,0,1,11.1-1.5,36,36,0,0,1,14.35,2.65q4.65,1.6,5.8-4.6,0-2.7-.05-5.45-.2-3.5-.75-7.1-.65-4.45-5.1-4.45H582.1Q577.74,85.09,577,89.64Z" style="fill:#ffe0b1"/><path d="M606.39,92.59l-.65,3.2h8.8q-2.75-3.45-8.15-3.2m-11.5,4.3-.65-3.2q-5.4-.25-8.15,3.2Z" style="fill:#544b4b"/><path d="M589.89,99a4.37,4.37,0,0,0-.1,1,3.88,3.88,0,0,0,.6,2.2,3.26,3.26,0,0,0,.3.35,1.6,1.6,0,0,0,2.5,0,1.33,1.33,0,0,0,.25-.35,3.66,3.66,0,0,0,.65-2.2,4.37,4.37,0,0,0-.1-1h-4.1m21.05,1a4.37,4.37,0,0,0-.1-1h-4.1a4.37,4.37,0,0,0-.1,1,3.88,3.88,0,0,0,.6,2.2,3.26,3.26,0,0,0,.3.35,1.6,1.6,0,0,0,2.5,0,1.33,1.33,0,0,0,.25-.35,3.66,3.66,0,0,0,.65-2.2m-5.6,5.75a1.08,1.08,0,0,0-.6-.2h-2.85v3h-7a3.85,3.85,0,0,0,.75.9,5.81,5.81,0,0,0,4.25,1.8,5.73,5.73,0,0,0,4.2-1.75l.05,0a6.33,6.33,0,0,0,1.2-1.65,4.78,4.78,0,0,0,.4-1,1.16,1.16,0,0,0-.05-.6.81.81,0,0,0-.35-.5Z" style="fill:#7f7058"/><path d="M589.79,100a4.37,4.37,0,0,1,.1-1h-2.25a4.37,4.37,0,0,0-.1,1,3.78,3.78,0,0,0,.9,2.55l.1.1a3.54,3.54,0,0,0,2.65,1.15,3.23,3.23,0,0,0,2.55-1.15l.1-.1a3.56,3.56,0,0,0,1-2.55,4.37,4.37,0,0,0-.1-1H594a4.37,4.37,0,0,1,.1,1,3.66,3.66,0,0,1-.65,2.2,1.33,1.33,0,0,1-.25.35,1.6,1.6,0,0,1-2.5,0,3.26,3.26,0,0,1-.3-.35,3.88,3.88,0,0,1-.6-2.2m21.05-1a4.37,4.37,0,0,1,.1,1,3.66,3.66,0,0,1-.65,2.2,1.33,1.33,0,0,1-.25.35,1.6,1.6,0,0,1-2.5,0,3.26,3.26,0,0,1-.3-.35,3.88,3.88,0,0,1-.6-2.2,4.37,4.37,0,0,1,.1-1h-.5a4.37,4.37,0,0,0-.1,1,3.78,3.78,0,0,0,.9,2.55l.1.1a3.54,3.54,0,0,0,2.65,1.15,3.23,3.23,0,0,0,2.55-1.15l.1-.1a3.56,3.56,0,0,0,1-2.55,4.37,4.37,0,0,0-.1-1h-2.5m-9,9.5v-3H595a.86.86,0,0,0-.55.2.76.76,0,0,0-.4.5.92.92,0,0,0,0,.6,3.26,3.26,0,0,0,.35,1,5.58,5.58,0,0,0,.45.75Z" style="fill:#fff"/><path d="M600.54,88.25a40.32,40.32,0,0,0,15.45.2l-4.1-18.75a5.39,5.39,0,0,1,1.1-3.1Q591.48,72,582.64,87.7a15.91,15.91,0,0,1,11.1-1.45,9.82,9.82,0,0,1,5.1,3.55Z" style="fill:#544b4b"/><path d="M611.89,69.74,616,88.49l2.4,8.15,1.1-16.75-7.6-10.15m1.1-3.1a2.64,2.64,0,0,1,1.5-.8q-8.6-1.25-19.95,3a2.85,2.85,0,0,0-.5.15A99.41,99.41,0,0,0,581,74.09l-1.25,3.1-3.1-1.35-3,6.75q-2.8,7.5,3,20l6-14.9Q591.49,72.07,613,66.64Z" style="fill:#5d5454"/></g></svg>