<svg id="Layer_1" data-name="Layer 1" xmlns="http://www.w3.org/2000/svg" viewBox="0 0 1200 850"><title>characterflayer</title><g id="Layer_4" data-name="Layer 4"><rect width="1200" height="850" style="fill:#fff"/></g><g id="index"><polyline points="651.81 151.22 596.46 183.12 541.5 151.17 595.25 119 651.81 151.22" style="fill:#fff;stroke:#ff00bd;stroke-linecap:round;stroke-linejoin:round;stroke-width:2px"/></g><g id="flyer1"><g id="Layer0_75_MEMBER_0_MEMBER_0_FILL" data-name="Layer0 75 MEMBER 0 MEMBER 0 FILL"><path d="M628.83,38.45l0,.1A82.51,82.51,0,0,1,608.58,72a1.72,1.72,0,0,0-.45.55,2.77,2.77,0,0,0,.2.7,4.18,4.18,0,0,0,1.5,1.65l0,0q11,6.75,19.1-2.4,8.1-1.3,10.35-6.25,2.7-4.55-.75-12,4.35-11.1-4.35-18.3a2.94,2.94,0,0,0-1.5-.2l0,0a5,5,0,0,0-2.45,1A3.48,3.48,0,0,0,628.83,38.45Z" style="fill:#e3f1f3"/><path d="M628.08,32.65l.1,0a3.44,3.44,0,0,0-2.15,1,3,3,0,0,0-1.2,2l.05,0a81,81,0,0,1-16,33.8l0-.1a2.9,2.9,0,0,0-.85,1.85,2.5,2.5,0,0,0,0,1.4,1.72,1.72,0,0,1,.45-.55,82.51,82.51,0,0,0,20.2-33.4l0-.1a3.48,3.48,0,0,1,1.4-1.95,5,5,0,0,1,2.45-1l0,0a2.94,2.94,0,0,1,1.5.2,22.87,22.87,0,0,0-3.8-2.7A3.71,3.71,0,0,0,628.08,32.65Z" style="fill:#fff"/></g><g id="Layer0_75_MEMBER_0_MEMBER_1_FILL" data-name="Layer0 75 MEMBER 0 MEMBER 1 FILL"><path d="M565.13,38.5l-.05-.05a3.27,3.27,0,0,0-1.4-1.95,4.28,4.28,0,0,0-2.45-1l.1,0a3.48,3.48,0,0,0-1.55.15q-8.7,7.2-4.35,18.3-3.45,7.5-.75,12,2.25,4.95,10.4,6.25,8.1,9.15,19.05,2.4l-.05,0a3.47,3.47,0,0,0,1.5-1.6,3.6,3.6,0,0,0,.2-.75,1.29,1.29,0,0,0-.45-.5A82.91,82.91,0,0,1,565.13,38.5Z" style="fill:#e3f1f3"/><path d="M565.73,32.55l.1,0a3.61,3.61,0,0,0-2.2.45,26.23,26.23,0,0,0-3.85,2.7,3.48,3.48,0,0,1,1.55-.15l-.1,0a4.28,4.28,0,0,1,2.45,1,3.27,3.27,0,0,1,1.4,1.95l.05.05A82.91,82.91,0,0,0,585.33,72a1.29,1.29,0,0,1,.45.5,2.5,2.5,0,0,0,0-1.4,3,3,0,0,0-.8-1.8v.1a80.55,80.55,0,0,1-15.9-33.8v-.1a3.14,3.14,0,0,0-1.2-1.95A3.44,3.44,0,0,0,565.73,32.55Z" style="fill:#fff"/></g><g id="Layer0_75_MEMBER_1_FILL" data-name="Layer0 75 MEMBER 1 FILL"><path d="M588,71.55a1.88,1.88,0,0,0-1.5-.25l-8.4,2.25a1.59,1.59,0,0,0-.95.65,1.67,1.67,0,0,0-.55,1,1.9,1.9,0,0,0,.25,1.15l6.35,12-3.3,4a2,2,0,0,0-.45,1,2.47,2.47,0,0,0,.3,1.2,1.38,1.38,0,0,0,1,.7,2.11,2.11,0,0,0,1.2,0l10.3-2.75a2.07,2.07,0,0,0,1.2-.85,1.92,1.92,0,0,0,.2-1.5l-4.7-17.5a1.67,1.67,0,0,0-.9-1.15m29.4,3.7a2.06,2.06,0,0,0-.5-1.05,1.77,1.77,0,0,0-1-.6l-8.45-2.3a1.84,1.84,0,0,0-1.5.25,1.67,1.67,0,0,0-.9,1.15l-4.7,17.5a1.92,1.92,0,0,0,.2,1.5,1.88,1.88,0,0,0,1.2.85l10.3,2.75a1.66,1.66,0,0,0,1.2,0,1.54,1.54,0,0,0,.9-.7,1.91,1.91,0,0,0,.3-1.2,2.15,2.15,0,0,0-.4-1l-3.3-3.9,6.35-12A2.42,2.42,0,0,0,617.38,75.25Z" style="fill:#fc0"/></g><g id="Layer0_75_MEMBER_2_FILL" data-name="Layer0 75 MEMBER 2 FILL"><path d="M612.78,53.65a22.33,22.33,0,0,0-38.1,15.25V86.35h44.6V68.9A21.49,21.49,0,0,0,612.78,53.65Z" style="fill:#fc0"/><path d="M612.78,51.65a22.33,22.33,0,0,0-38.1,15.75v1.5a22.31,22.31,0,0,1,44.6,0V67.4A21.45,21.45,0,0,0,612.78,51.65Z" style="fill:#fceaa2"/></g><g id="Layer0_49_MEMBER_4_FILL" data-name="Layer0 49 MEMBER 4 FILL"><path d="M600.43,72.26a1.27,1.27,0,0,0-1.1,0,1.36,1.36,0,0,0-.75.8,1.87,1.87,0,0,1-.35.6h0a1.69,1.69,0,0,1-2.4,0,1.4,1.4,0,0,1-.35-.55v0a1.38,1.38,0,0,0-.75-.75,1.27,1.27,0,0,0-1.1-.1,1.2,1.2,0,0,0-.75.75,1.28,1.28,0,0,0,0,1,4.3,4.3,0,0,0,4.2,3,4.35,4.35,0,0,0,3.2-1.3,5.31,5.31,0,0,0,1-1.6,1.28,1.28,0,0,0,0-1v0a1.4,1.4,0,0,0-.75-.7m-10.5-5.65a3.67,3.67,0,0,0-2.7-1.1,3.76,3.76,0,0,0-3.75,3.75,3.67,3.67,0,0,0,1.1,2.7,3.61,3.61,0,0,0,2.65,1.1,3.76,3.76,0,0,0,3.8-3.8,3.61,3.61,0,0,0-1.1-2.65m16.8,6.45a3.61,3.61,0,0,0,2.65-1.1,3.67,3.67,0,0,0,1.1-2.7,3.76,3.76,0,0,0-3.75-3.75,3.67,3.67,0,0,0-2.7,1.1,3.61,3.61,0,0,0-1.1,2.65,3.76,3.76,0,0,0,3.8,3.8Z" style="fill:#987b08"/></g></g></svg>