<?xml version="1.0" encoding="utf-8"?>
<!-- Generator: Adobe Illustrator 21.0.0, SVG Export Plug-In . SVG Version: 6.00 Build 0)  -->
<svg version="1.1" id="background" xmlns="http://www.w3.org/2000/svg" xmlns:xlink="http://www.w3.org/1999/xlink" x="0px" y="0px"
	 viewBox="0 0 800 800" style="enable-background:new 0 0 800 800;" xml:space="preserve">
<style type="text/css">
	.st0{clip-path:url(#SVGID_2_);fill:#A0B7D6;}
	.st1{opacity:0.3;clip-path:url(#SVGID_2_);}
	.st2{fill:#BBD2E6;}
	.st3{opacity:0.6;clip-path:url(#SVGID_2_);}
	.st4{fill:#889BC5;}
	.st5{clip-path:url(#SVGID_2_);fill:none;}
	.st6{clip-path:url(#SVGID_2_);fill:#584B80;}
</style>
<g>
	<defs>
		<rect id="SVGID_1_" x="0" y="0" width="800" height="800"/>
	</defs>
	<clipPath id="SVGID_2_">
		<use xlink:href="#SVGID_1_"  style="overflow:visible;"/>
	</clipPath>
	<rect x="0" y="0" class="st0" width="800" height="800"/>
	<g class="st1">
		<path class="st2" d="M0.1,800h799.6c0,0,0.6-692.2,0-692.3c-13.3-18-19.8-8.6-31.7,7.2c-9-17.8-32.1-15.3-44.5-1.4
			c-10.5-18.1-38.1-8-43,10.2c-4.2-3.9-10.3-6-15.9-6.9c-5.4-0.9-11.3-1.2-16.3,1.5c-2.8,1.5-5.2,3.5-7.5,5.8
			c0.6-6.1,1-12.5-0.9-18.1c-2.9-8.4-10-12.7-17.9-15.3c-7.5-2.5-18-5.2-25.8-2.4c-5.6,2.1-8.1,8.2-9.9,14.2
			c-4.8-11.3-19.6-17-30.9-17.8c-7.3-0.5-15.2-0.1-20.2,6.1c-2.8,3.5-4.3,7.8-5.7,12.2c-4.9-12.9-21.4-21.8-32.6-25.8
			c-11.4-4.1-30.2-7.6-39.5,2.3c-1.2-8.6-3.9-16.9-9.1-23.9c-6.6-8.8-16.4-14.5-27-16.5c-9.1-1.8-21-3.5-27.8,4.7
			c-5,6-7.6,13.8-11.2,20.8c-6.7-10.8-22.5-13-33.8-10c-6.1,1.6-12.8,4.9-15.9,10.9c-1.7,3.3-2.2,6.7-1.8,10
			c-8.1-4.4-19.8-4.8-26.7-2c-7,2.9-11.4,8.7-13.7,15.6c-0.7-1.4-1.5-2.8-2.5-4.1c-4.7-6.6-12.2-11.9-19.8-14.2
			c-9.7-3-23.5-3.3-29.2,5.4c-2.3-4.1-6.3-7.3-10.8-8.4c-4.6-1.1-8.4,0.3-10.5,3.5c-7.9-10.9-24.9-13.5-37.2-10.8
			c-7.6,1.7-15.2,5.3-18.5,13c-2.6,6.3-2.2,13.4-3.1,20.1c-2.6-4.4-6.4-8-10.8-10.5c-19.2-11.3-57.8-11.5-64,14.2
			c-1-0.9-2-1.7-2.8-2.3c-5-4.1-14-6.9-20.2-4.5c-4.2,1.7-6.5,4.9-7.7,8.7c-5.9-6.2-17.3-8.5-24.7-7.5C15,93.6,2.4,107.7,0.1,120.7
			V800z"/>
	</g>
	<g class="st3">
		<path class="st4" d="M799.9,168.5c-2.4-13.7-14.9-28.6-28.7-30.4c-7.4-1-18.8,1.4-24.7,7.9c-1.2-4-3.6-7.4-7.7-9.2
			c-6.2-2.6-15.2,0.4-20.2,4.7c-0.8,0.7-1.7,1.5-2.8,2.4c-6.1-27.2-44.7-26.9-64-15c-4.4,2.7-8.2,6.5-10.8,11.1
			c-0.9-7.1-0.4-14.6-3.1-21.2c-3.2-8.1-10.9-12-18.5-13.7c-12.2-2.9-29.2-0.2-37.2,11.3c-2-3.3-5.8-4.8-10.5-3.6
			c-4.5,1.1-8.4,4.5-10.8,8.8c-5.7-9.2-19.5-8.9-29.2-5.7c-7.6,2.5-15.2,8-19.8,15c-0.9,1.4-1.8,2.9-2.5,4.4
			c-2.3-7.2-6.7-13.4-13.7-16.5c-6.9-3-18.6-2.5-26.7,2.1c0.4-3.5-0.1-7.1-1.8-10.6c-3.1-6.3-9.8-9.8-15.9-11.5
			c-11.3-3.1-27.2-0.8-33.8,10.6c-3.6-7.4-6.2-15.6-11.2-22c-6.8-8.7-18.7-6.9-27.8-5c-10.6,2.2-20.3,8.1-27,17.4
			c-5.2,7.3-7.9,16.1-9.1,25.2c-9.3-10.4-28.1-6.8-39.5-2.5c-11.2,4.2-27.7,13.6-32.6,27.2c-1.4-4.6-3-9.2-5.7-12.8
			c-5-6.6-12.9-7-20.2-6.4c-11.3,0.9-26,7-30.9,18.8c-1.8-6.4-4.3-12.8-9.9-15c-7.7-3-18.2-0.1-25.8,2.5c-7.9,2.7-15,7.3-17.9,16.1
			c-1.9,5.9-1.5,12.7-0.9,19.1c-2.2-2.4-4.7-4.5-7.5-6.1c-5.1-2.8-10.9-2.5-16.3-1.6c-5.5,0.9-11.7,3.2-15.9,7.3
			c-4.9-19.1-32.5-29.8-43-10.8C64.1,146.2,41,143.6,32,162.4c-4.9-17.6-28.8-16.5-31.7,6.1c-0.6,0.1,0,631.5,0,631.5h799.6V168.5z"
			/>
	</g>
	<path class="st5" d="M431.9,579c0,0-0.1,0-0.1,0l0.3,0.1C432,579.1,431.9,579,431.9,579z"/>
	<path class="st6" d="M443.8,584.4l6.4,2.9C447.7,585.9,445.6,585,443.8,584.4z"/>
</g>
</svg>
