<?xml version="1.0" encoding="utf-8"?>
<!-- Generator: Adobe Illustrator 21.0.0, SVG Export Plug-In . SVG Version: 6.00 Build 0)  -->
<svg version="1.1" xmlns="http://www.w3.org/2000/svg" xmlns:xlink="http://www.w3.org/1999/xlink" x="0px" y="0px"
	 viewBox="0 0 800 800" style="enable-background:new 0 0 800 800;" xml:space="preserve">
<style type="text/css">
	.st0{fill:#E7D3A6;}
	.st1{clip-path:url(#SVGID_2_);}
	.st2{fill:#E9C187;}
	.st3{fill:#EBC67B;}
	.st4{fill:#EFD885;}
</style>
<g id="background">
	<rect x="0" y="0" class="st0" width="800" height="800"/>
</g>
<g id="objects">
	<g>
		<defs>
			<rect id="SVGID_1_" x="0" y="0" width="800" height="800"/>
		</defs>
		<clipPath id="SVGID_2_">
			<use xlink:href="#SVGID_1_"  style="overflow:visible;"/>
		</clipPath>
		<g class="st1">
			<path class="st2" d="M1000.5,114.5c-200-34.1-404,8.8-606.5,21c-148.7,9-298.5,1.4-446.1,21.9c8.9,58.6,17.8,117.1,26.7,175.7
				c243.2-24.9,489.1-24.1,732.2,2.3c39.1,4.3,78.6,9.2,117.8,4.9c39.1-4.3,78.6-18.8,105.3-47.7
				C973.4,245.1,973.1,172.7,1000.5,114.5z"/>
			<path class="st3" d="M937.8,340.7c-2.9,40.5-5.9,81.1-8.8,121.6c-343-20.9-683.7,101.5-1026.2,73c6.3-52.8-14-104.6-22.3-157.1
				c-8.3-52.5,0.6-115.5,46.3-142.6c154,33.2,311.2,51.2,468.7,53.5C578.3,291.8,767.5,274.5,937.8,340.7z"/>
			<path class="st4" d="M374.5,390.5c-145.7,4.6-292.1,9.2-437-7.5c91.3-3.4,182.7-6.8,274-10.2c61.8-2.3,123.5-4.6,185.3-6.9
				c117.8-4.4,235.6-8.7,353.4-13.1C627.7,382.4,500.6,386.5,374.5,390.5z"/>
			<path class="st2" d="M206.5,107c90-5.9,180-11.8,270-17.7C389.1,114.2,296.4,120.3,206.5,107z"/>
			<path class="st2" d="M494.2,114.6c78.7-6.8,157.5-13.6,236.2-20.3C655.5,117.8,573.2,124.9,494.2,114.6z"/>
			<path class="st2" d="M327.9,52.5C201,78.8,70.7,88.7-58.8,81.7c0-7.3,0-14.6-0.1-21.8C70.1,57.4,199,54.9,327.9,52.5z"/>
			<path class="st3" d="M835.7,140.7c-141.1,15.8-282.9,27.5-425.2,35c139.2,5.3,278.8,4.7,417.9-1.7
				C830.9,162.9,833.3,151.8,835.7,140.7z"/>
			<path class="st3" d="M484.9,197.4c-85.6-0.8-171.3-1.5-256.9-2.3c73.4,6.9,147.5,13.8,221.7,11.7c45.1-1.3,89.8-5.8,134.1-11.2
				C551,197.9,517.9,197.7,484.9,197.4z"/>
			<path class="st3" d="M503.3,241.8c-30.8-0.6-61.6-1.2-92.4-1.8c-31.2-0.6-62.3-1.2-93.5-1.8c-35.5-0.7-71-1.3-106.5-2
				c-90.6-1.7-181.4-3.4-271.9,1c-2-10-3.9-20.1-5.9-30.1c69.3,0.8,138.7,1.6,207.7,7.1c34.2,2.7,68.4,6.7,102.7,8.6
				c27.9,1.6,55.7,3.6,83.6,5.2C386,231.2,444.7,231.5,503.3,241.8z"/>
			<path class="st4" d="M347.8,304.9c34.2,0.1,68.4,0.3,102.6,0.4c-121.8,14.4-246.2,21.5-370.5,21.1c-45.4-0.1-91.4-1.3-135.7,4.7
				c-2.8-8.5-5.7-17-8.5-25.6c73.9-1.9,147.9-1.7,221.9-1.4C221,304.4,284.4,304.7,347.8,304.9z"/>
			<path class="st4" d="M967.2,280.7c-178.4,15.7-356.2,39.6-532.5,71.4c172-10.8,344-21.6,515.9-32.4
				C956.2,306.7,961.7,293.7,967.2,280.7z"/>
		</g>
	</g>
</g>
<g id="designed_by_freepik">
</g>
</svg>
