<?xml version="1.0" encoding="utf-8"?>
<!-- Generator: Adobe Illustrator 21.0.0, SVG Export Plug-In . SVG Version: 6.00 Build 0)  -->
<svg version="1.1" id="Layer_1" xmlns="http://www.w3.org/2000/svg" xmlns:xlink="http://www.w3.org/1999/xlink" x="0px" y="0px"
	 viewBox="0 0 1200 1200" style="enable-background:new 0 0 1200 1200;" xml:space="preserve">
<style type="text/css">
	.st0{fill:#ADE6FF;}
	.st1{fill:#C4ECFF;}
	.st2{fill:#D0EFFF;}
</style>
<g>
	<g transform="matrix( 1, 0, 0, 1, 40,120) ">
		<g>
			<g id="Layer0_120_FILL">
				<path class="st0" d="M1160-120H-40v1200h1200V-120z"/>
			</g>
		</g>
	</g>
	<g transform="matrix( 1, 0, 0, 1, 40,120) ">
		<g>
			<g id="Layer0_121_FILL">
				<path class="st1" d="M1001.8,353.6c-7.4-5.9-16.4-8.8-27.1-8.8c-10.6,0-19.6,2.9-27.1,8.8c-1.1,0.9-2.1,1.8-3.1,2.8
					c-18.6-13.7-40.7-20.5-66.6-20.5c-5.2,0-10.3,0.3-15.3,0.9c-0.4-0.3-0.8-0.6-1.2-0.9c-7.4-5.9-16.4-8.9-27.1-8.9
					c-6,0-11.6,1-16.6,3h-0.1c0-0.2,0-0.3,0.1-0.5c0.1-0.7,0.1-1.4,0.1-2c0-0.3,0-0.5,0-0.7c0-0.3,0-0.7,0-1
					c-0.3-7.9-4.1-14.7-11.2-20.3c-7.5-5.9-16.5-8.8-27.1-8.8c-2.3,0-4.6,0.1-6.7,0.4c-1.8-4.7-5-8.9-9.7-12.6
					c-7.5-5.9-16.5-8.8-27.1-8.8c-10.6,0-19.6,2.9-27.1,8.8c-5.1,4-8.5,8.6-10.1,13.8c-16.6,2.7-31.3,8.7-44.4,17.9
					c-6.6-4.1-14.4-6.1-23.3-6.1c-10.6,0-19.6,2.9-27.1,8.8c-5.4,4.3-8.9,9.3-10.4,14.9c-6.6-1.1-13.5-1.6-20.6-1.6
					c-2.3,0-4.5,0.1-6.8,0.2c-1.6-5.1-5-9.6-10-13.6c-7.4-5.9-16.4-8.8-27.1-8.8c-10.6,0-19.6,2.9-27.1,8.8
					c-0.3,0.3-0.5,0.5-0.7,0.7c-4.1-5.5-9.3-10.6-15.4-15.5c-19.1-15-42.1-22.6-69.1-22.6c-1.8-3.5-4.6-6.7-8.3-9.6
					c-7.5-5.9-16.5-8.8-27.1-8.8c-3.6,0-7,0.3-10.1,1c-0.7-7.3-4.4-13.5-11.2-18.8c-7.5-5.9-16.5-8.8-27.1-8.8
					c-7.6,0-14.3,1.5-20.2,4.5c-13-5.1-27.4-7.6-43.1-7.6c-27.1,0-50.2,7.5-69.3,22.6c-8.9,7-15.7,14.6-20.4,22.9
					c-2.7-0.4-5.4-0.6-8.4-0.6c-10.5,0-19.5,2.9-27.1,8.8c-7,5.6-10.7,12.2-11.1,20.1c0,0.4-0.1,0.8-0.1,1.3c0,0.9,0,1.7,0.1,2.6
					c0.4,3.6,1.4,6.9,3.3,10.1c-1.3,2.3-2.2,4.7-2.8,7.2c-9.8,3.7-18.9,8.8-27.2,15.4c-3.5,2.8-6.7,5.7-9.6,8.7
					c-6-3-12.8-4.5-20.4-4.5c-10.6,0-19.6,2.9-27,8.8c-5.6,4.4-9.1,9.4-10.5,15.1c-0.6,0-1.3,0-1.9,0c-15.2,0-29.2,2.4-41.9,7.2
					c-5.4-2.3-11.3-3.4-17.8-3.4c-6.6,0-12.6,1.2-17.9,3.5v249.7h1200V381.9c-0.3-10.4-4.8-19.3-13.6-26.7
					c-7.8-6.6-17-10.4-27.5-11.3c-1.7-2-3.6-4-5.8-5.8c-9.1-7.7-20-11.5-32.8-11.5c-5.5,0-10.6,0.7-15.4,2.1
					c-6.4,1.9-12.2,5-17.4,9.4c-7.3,6.1-11.6,13.3-13.1,21.5c-8.3,0.9-16.2,2.5-23.6,5.1C1009,360.5,1006,356.8,1001.8,353.6z"/>
			</g>
		</g>
	</g>
	<g transform="matrix( 1, 0, 0, 1, 40,120) ">
		<g>
			<g id="Layer0_122_FILL">
				<path class="st2" d="M1015.5,502.5c-46.4,13.8-91.9,30.9-136.5,51.5c-46,21-93.6,31.3-142.8,30.7c-49.3-0.4-95.9-13.8-140-40
					c-43.6-26.1-89.4-45.1-137.3-57c-48-11.9-95.3-9.1-142.1,8.5c-13.7,5.2-27.3,10.5-40.9,15.9V495c1.7-0.4,3.2-1.5,4.5-3.2
					c1.8-2.3,2.7-5,2.8-8.1v-65.2c0-3.1-1-5.8-2.8-8.1c-1.8-2.3-4.1-3.5-6.7-3.5c-2.6,0-4.8,1.2-6.7,3.5c-1.8,2.3-2.7,5-2.8,8.1
					v65.2c0.1,3.1,1,5.8,2.8,8.1c1.3,1.6,2.7,2.6,4.3,3.2v19c-7.6,3.1-15.1,6.2-22.7,9.4v-4.9c1.7-0.5,3.2-1.6,4.5-3.2
					c1.8-2.3,2.7-5,2.8-8.1v-65.1c0-3.2-1-5.9-2.8-8.2c-1.8-2.3-4.1-3.5-6.7-3.5c-2.6,0-4.8,1.2-6.7,3.5c-1.8,2.3-2.7,5-2.8,8.2
					v65.1c0.1,3.1,1,5.8,2.8,8.1c1.3,1.6,2.7,2.6,4.3,3.2v6.9c-20.9,8.8-41.8,18.1-62.5,27.8c-48.1,22.4-95.2,20.3-141.3-6.3
					c-26.3-15.1-53.1-28.8-80.3-41V1080h1199.9V505.9C1112.1,489.4,1064,488.2,1015.5,502.5z"/>
			</g>
		</g>
	</g>
</g>
</svg>
