<?xml version="1.0" encoding="utf-8"?>
<!-- Generator: Adobe Illustrator 21.0.0, SVG Export Plug-In . SVG Version: 6.00 Build 0)  -->
<svg version="1.1" xmlns="http://www.w3.org/2000/svg" xmlns:xlink="http://www.w3.org/1999/xlink" x="0px" y="0px"
	 viewBox="0 0 1200 800" style="enable-background:new 0 0 1200 800;" xml:space="preserve">
<style type="text/css">
	.st0{fill:url(#XMLID_3_);}
	.st1{fill:#FFFBFA;}
	.st2{opacity:0.3;}
	.st3{fill:#68376B;}
</style>
<g id="background">
</g>
<g id="object">
	<linearGradient id="XMLID_3_" gradientUnits="userSpaceOnUse" x1="600" y1="-51.3872" x2="600" y2="679.2976">
		<stop  offset="0" style="stop-color:#BE6675"/>
		<stop  offset="1" style="stop-color:#FFE4A6"/>
	</linearGradient>
	<rect id="XMLID_2_" class="st0" width="1200" height="800"/>
	<path id="XMLID_51_" class="st1" d="M903.9,99c0,4.2-4.7,5.3-4.7,5.3s4.7,1.1,4.7,5.3c0-4.2,4.7-5.3,4.7-5.3S903.9,103.2,903.9,99z
		"/>
	<path id="XMLID_54_" class="st1" d="M387.3,117.3c0,4.2-4.7,5.3-4.7,5.3s4.7,1.1,4.7,5.3c0-4.2,4.7-5.3,4.7-5.3
		S387.3,121.6,387.3,117.3z"/>
	<path id="XMLID_52_" class="st1" d="M293.8,177.4c0,4.2-4.7,5.3-4.7,5.3s4.7,1.1,4.7,5.3c0-4.2,4.7-5.3,4.7-5.3
		S293.8,181.6,293.8,177.4z"/>
	<path id="XMLID_41_" class="st1" d="M872.2,124.8c0,4.2-4.7,5.3-4.7,5.3s4.7,1.1,4.7,5.3c0-4.2,4.7-5.3,4.7-5.3
		S872.2,129,872.2,124.8z"/>
	<path id="XMLID_43_" class="st1" d="M729.4,109.6c0,4.2-4.7,5.3-4.7,5.3s4.7,1.1,4.7,5.3c0-4.2,4.7-5.3,4.7-5.3
		S729.4,113.8,729.4,109.6z"/>
	<path id="XMLID_64_" class="st1" d="M861.2,279.7c0,4.2-4.7,5.3-4.7,5.3s4.7,1.1,4.7,5.3c0-4.2,4.7-5.3,4.7-5.3
		S861.2,283.9,861.2,279.7z"/>
	<path id="XMLID_53_" class="st1" d="M632.2,263.8c0,4.2-4.7,5.3-4.7,5.3s4.7,1.1,4.7,5.3c0-4.2,4.7-5.3,4.7-5.3
		S632.2,268,632.2,263.8z"/>
	<path id="XMLID_56_" class="st1" d="M972.6,185.5c0,4.2-4.7,5.3-4.7,5.3s4.7,1.1,4.7,5.3c0-4.2,4.7-5.3,4.7-5.3
		S972.6,189.7,972.6,185.5z"/>
	<path id="XMLID_57_" class="st1" d="M818.6,173.2c0,5.6-6.2,7-6.2,7s6.2,1.4,6.2,7c0-5.6,6.2-7,6.2-7S818.6,178.8,818.6,173.2z"/>
	<path id="XMLID_58_" class="st1" d="M594,285c0,5.6-6.2,7-6.2,7s6.2,1.4,6.2,7c0-5.6,6.2-7,6.2-7S594,290.6,594,285z"/>
	<path id="XMLID_63_" class="st1" d="M373.5,348.6c0,5.6-6.2,7-6.2,7s6.2,1.4,6.2,7c0-5.6,6.2-7,6.2-7S373.5,354.3,373.5,348.6z"/>
	<path id="XMLID_59_" class="st1" d="M1047.1,274.8c0,5.6-6.2,7-6.2,7s6.2,1.4,6.2,7c0-5.6,6.2-7,6.2-7S1047.1,280.4,1047.1,274.8z"
		/>
	<path id="XMLID_55_" class="st1" d="M537.1,229.4c0,4.2-4.7,5.3-4.7,5.3s4.7,1.1,4.7,5.3c0-4.2,4.7-5.3,4.7-5.3
		S537.1,233.7,537.1,229.4z"/>
	<path id="XMLID_62_" class="st1" d="M178.7,347c0,4.2-4.7,5.3-4.7,5.3s4.7,1.1,4.7,5.3c0-4.2,4.7-5.3,4.7-5.3
		S178.7,351.2,178.7,347z"/>
	<path id="XMLID_45_" class="st1" d="M197,124.8c0,4.2-4.7,5.3-4.7,5.3s4.7,1.1,4.7,5.3c0-4.2,4.7-5.3,4.7-5.3S197,129,197,124.8z"
		/>
	<path id="XMLID_50_" class="st1" d="M234.2,68.3c0,4.2-4.7,5.3-4.7,5.3s4.7,1.1,4.7,5.3c0-4.2,4.7-5.3,4.7-5.3
		S234.2,72.5,234.2,68.3z"/>
	<g transform="matrix( 1, 0, 0, 1, 40,120) " class="st2">
		<g>
			<g id="Layer0_121_FILL">
				<path class="st3" d="M1002.1,230.7c-7.4-5.9-16.4-8.8-27.1-8.8c-10.6,0-19.6,2.9-27.1,8.8c-1.1,0.9-2.1,1.8-3.1,2.8
					c-18.6-13.7-40.7-20.5-66.6-20.5c-5.2,0-10.3,0.3-15.3,0.9c-0.4-0.3-0.8-0.6-1.2-0.9c-7.4-5.9-16.4-8.9-27.1-8.9
					c-6,0-11.6,1-16.6,3h-0.1c0-0.2,0-0.3,0.1-0.5c0.1-0.7,0.1-1.4,0.1-2c0-0.3,0-0.5,0-0.7c0-0.3,0-0.7,0-1
					c-0.3-7.9-4.1-14.7-11.2-20.3c-7.5-5.9-16.5-8.8-27.1-8.8c-2.3,0-4.6,0.1-6.7,0.4c-1.8-4.7-5-8.9-9.7-12.6
					c-7.5-5.9-16.5-8.8-27.1-8.8s-19.6,2.9-27.1,8.8c-5.1,4-8.5,8.6-10.1,13.8c-16.6,2.7-31.3,8.7-44.4,17.9
					c-6.6-4.1-14.4-6.1-23.3-6.1c-10.6,0-19.6,2.9-27.1,8.8c-5.4,4.3-8.9,9.3-10.4,14.9c-6.6-1.1-13.5-1.6-20.6-1.6
					c-2.3,0-4.5,0.1-6.8,0.2c-1.6-5.1-5-9.6-10-13.6c-7.4-5.9-16.4-8.8-27.1-8.8c-10.6,0-19.6,2.9-27.1,8.8
					c-0.3,0.3-0.5,0.5-0.7,0.7c-4.1-5.5-9.3-10.6-15.4-15.5c-19.1-15-42.1-22.6-69.1-22.6c-1.8-3.5-4.6-6.7-8.3-9.6
					c-7.5-5.9-16.5-8.8-27.1-8.8c-3.6,0-7,0.3-10.1,1c-0.7-7.3-4.4-13.5-11.2-18.8c-7.5-5.9-16.5-8.8-27.1-8.8
					c-7.6,0-14.3,1.5-20.2,4.5c-13-5.1-27.4-7.6-43.1-7.6c-27.1,0-50.2,7.5-69.3,22.6c-8.9,7-15.7,14.6-20.4,22.9
					c-2.7-0.4-5.4-0.6-8.4-0.6c-10.5,0-19.5,2.9-27.1,8.8c-7,5.6-10.7,12.2-11.1,20.1c0,0.4-0.1,0.8-0.1,1.3c0,0.9,0,1.7,0.1,2.6
					c0.4,3.6,1.4,6.9,3.3,10.1c-1.3,2.3-2.2,4.7-2.8,7.2c-9.8,3.7-18.9,8.8-27.2,15.4c-3.5,2.8-6.7,5.7-9.6,8.7
					c-6-3-12.8-4.5-20.4-4.5c-10.6,0-19.6,2.9-27,8.8c-5.6,4.4-9.1,9.4-10.5,15.1c-0.6,0-1.3,0-1.9,0c-15.2,0-29.2,2.4-41.9,7.2
					c-5.4-2.3-11.3-3.4-17.8-3.4c-6.6,0-12.6,1.2-17.9,3.5V680h1200V259c-0.3-10.4-4.8-19.3-13.6-26.7c-7.8-6.6-17-10.4-27.5-11.3
					c-1.7-2-3.6-4-5.8-5.8c-9.1-7.7-20-11.5-32.8-11.5c-5.5,0-10.6,0.7-15.4,2.1c-6.4,1.9-12.2,5-17.4,9.4
					c-7.3,6.1-11.6,13.3-13.1,21.5c-8.3,0.9-16.2,2.5-23.6,5.1C1009.3,237.6,1006.3,233.9,1002.1,230.7z"/>
			</g>
		</g>
	</g>
</g>
<g id="designed_by_freepik">
</g>
</svg>
