<?xml version="1.0" encoding="utf-8"?>
<!-- Generator: Adobe Illustrator 21.0.0, SVG Export Plug-In . SVG Version: 6.00 Build 0)  -->
<svg version="1.1" id="Capa_1" xmlns="http://www.w3.org/2000/svg" xmlns:xlink="http://www.w3.org/1999/xlink" x="0px" y="0px"
	 viewBox="0 0 58 58" style="enable-background:new 0 0 58 58;" xml:space="preserve">
<style type="text/css">
	.st0{opacity:0.2;}
	.st1{fill:#724A6C;}
</style>
<g>
	<g class="st0">
		<path d="M32,57.5c-1,0-1.9-0.1-2.9-0.2l-0.1,0l-0.1,0c-1,0.1-2,0.2-2.9,0.2c-5.1,0-10-1.8-14.2-5.1c-0.1,0-0.1-0.1-0.1-0.1
			c-1.8-1.4-3.3-3.1-4.7-4.9l-0.1-0.1c-1.4-1.9-2.5-3.9-3.5-6.1l0-0.1C1.8,37.3,1,33.2,1,29c0-2.7,0.3-5.4,1-8c0-0.1,0-0.2,0-0.2
			c0.5-1.7,1.1-3.4,1.8-4.9l0.1-0.1c1-2.2,2.3-4.2,3.7-6l0.1-0.1C12.4,3.8,19.1,0.5,26,0.5c0.9,0,1.9,0.1,2.9,0.2l0.1,0l0.1,0
			c1-0.1,2-0.2,2.9-0.2c13.8,0,25,12.8,25,28.5S45.8,57.5,32,57.5z M15,53.4c2.1,1.3,4.4,2.1,6.6,2.6l3.8,0.8L22,55.1l-0.3-0.2
			c-0.3-0.2-0.6-0.3-1-0.5c0,0-0.4-0.2-0.5-0.3c-0.4-0.2-0.8-0.5-1.2-0.8c-0.2-0.1-0.4-0.3-0.6-0.4l-0.5-0.4h-4.4L15,53.4z M30,48.9
			c-0.8,0-1.4,0.6-1.5,1.3c0,0.4,0.1,0.8,0.3,1.1c0.2,0.3,0.6,0.5,1,0.6C30.6,52,31.3,52,32,52c0.9,0,1.5-0.7,1.5-1.5
			c0-0.8-0.7-1.5-1.5-1.5c-0.6,0-1.2,0-1.8-0.1C30.1,48.9,30.1,48.9,30,48.9z M8.9,48.3c1,1.1,2,2.1,3.1,3.1l0.1,0.1h4.4l-0.9-0.9
			l-0.2-0.2c-0.2-0.2-0.4-0.4-0.6-0.6l-0.1-0.1c-0.2-0.2-0.3-0.3-0.5-0.5c-0.3-0.4-0.6-0.7-0.9-1.1C13.4,48,13,47.5,13,47.5l-0.3,0
			H8.2L8.9,48.3z M39.7,47.1c-0.2,0-0.5,0.1-0.7,0.2c-0.5,0.3-1.1,0.5-1.7,0.7c-0.4,0.1-0.7,0.4-0.8,0.8c-0.2,0.4-0.2,0.8,0,1.1
			c0.2,0.6,0.8,1,1.4,1c0.2,0,0.4,0,0.5-0.1c0.7-0.3,1.3-0.5,2-0.9c0.4-0.2,0.6-0.5,0.7-0.9s0.1-0.8-0.1-1.1
			C40.8,47.5,40.3,47.1,39.7,47.1z M22.7,46.2c-0.5,0-1,0.3-1.3,0.7c-0.5,0.7-0.3,1.6,0.4,2.1c0.6,0.4,1.2,0.8,1.9,1.1
			c0.2,0.1,0.4,0.2,0.7,0.2c0.6,0,1.1-0.3,1.3-0.8c0.4-0.7,0.1-1.6-0.7-2c-0.5-0.3-1.1-0.6-1.6-0.9C23.2,46.3,22.9,46.2,22.7,46.2z
			 M45.8,42.1c-0.5,0-0.9,0.2-1.2,0.6c-0.4,0.5-0.8,1-1.2,1.4c-0.6,0.6-0.6,1.5,0,2.1c0.3,0.3,0.7,0.4,1.1,0.4
			c0.4,0,0.8-0.2,1.1-0.4c0.5-0.5,1-1,1.4-1.6c0.5-0.6,0.4-1.6-0.2-2.1C46.5,42.3,46.1,42.1,45.8,42.1z M5,42.2
			c0.7,1.4,1.5,2.8,2.4,4.1l0.1,0.2h4.8l-0.5-0.8c-0.2-0.3-0.4-0.6-0.5-0.9L11,44.4c-0.2-0.4-0.4-0.8-0.6-1.2l-0.2-0.4
			c-0.2-0.3-0.3-0.7-0.5-1l-0.1-0.3H4.6L5,42.2z M17.1,40.6c-0.3,0-0.6,0.1-0.8,0.3c-0.7,0.5-0.9,1.4-0.4,2.1
			c0.4,0.6,0.8,1.2,1.3,1.7c0.3,0.3,0.7,0.5,1.2,0.5c0.3,0,0.7-0.1,0.9-0.3c0.6-0.5,0.7-1.5,0.2-2.1c-0.4-0.5-0.8-1-1.1-1.5
			C18,40.9,17.6,40.6,17.1,40.6z M3.1,37.1c0.3,1.1,0.6,2.1,1,3.1l0.1,0.3h4.9l-0.5-1.4c-0.2-0.6-0.4-1.2-0.5-1.8l-0.2-0.9h-5
			L3.1,37.1z M49.6,35.2c-0.6,0-1.2,0.4-1.4,1c-0.2,0.6-0.4,1.2-0.7,1.7c-0.3,0.8,0,1.6,0.8,2c0.2,0.1,0.4,0.1,0.6,0.1
			c0.6,0,1.1-0.4,1.4-0.9c0.3-0.6,0.5-1.3,0.8-2c0.1-0.4,0.1-0.8-0.1-1.1s-0.5-0.6-0.9-0.8C49.9,35.3,49.7,35.2,49.6,35.2z
			 M13.9,33.4c-0.1,0-0.2,0-0.4,0c-0.8,0.2-1.3,1-1.1,1.8c0.2,0.7,0.4,1.4,0.6,2c0.2,0.6,0.8,1,1.4,1c0.2,0,0.3,0,0.5-0.1
			c0.4-0.1,0.7-0.4,0.9-0.8s0.2-0.8,0.1-1.1c-0.2-0.6-0.4-1.2-0.5-1.8C15.2,33.9,14.6,33.4,13.9,33.4z M2.2,32c0.1,1,0.2,2,0.5,3
			l0.1,0.4h5l-0.1-0.6c-0.1-0.5-0.2-1.1-0.3-1.6c-0.1-0.5-0.1-0.9-0.1-1.3l0-0.5h-5L2.2,32z M50.8,27.5c-0.8,0-1.5,0.7-1.5,1.5
			c0,0.6,0,1.2-0.1,1.8c-0.1,0.8,0.6,1.5,1.4,1.6l0.1,0c0.8,0,1.4-0.6,1.5-1.4c0.1-0.7,0.1-1.3,0.1-2C52.3,28.1,51.7,27.5,50.8,27.5
			z M13.2,25.5c-0.8,0-1.4,0.6-1.5,1.4c-0.1,0.7-0.1,1.4-0.1,2.1c0,0.8,0.7,1.5,1.5,1.5s1.5-0.7,1.5-1.5c0-0.6,0-1.2,0.1-1.8
			c0.1-0.8-0.6-1.5-1.4-1.6L13.2,25.5z M2.1,27C2,27.6,2,28.3,2,29c0,0.2,0,0.4,0,0.7l0,0.8h5l0-0.7c0-0.3,0-0.5,0-0.8
			c0-0.6,0-1.3,0.1-1.9l0-0.5l-0.5,0H2.1L2.1,27z M2.8,21.9c-0.2,0.9-0.4,1.9-0.5,3l-0.1,0.6h5l0.1-0.7c0.1-0.7,0.2-1.3,0.3-2
			l0.2-0.7l0.1-0.6h-5L2.8,21.9z M49.5,19.6c-0.2,0-0.3,0-0.5,0.1c-0.8,0.3-1.2,1.1-0.9,1.9c0.2,0.6,0.4,1.2,0.5,1.8
			c0.2,0.7,0.8,1.1,1.5,1.1c0.1,0,0.3,0,0.4,0c0.8-0.2,1.3-1,1.1-1.8c-0.2-0.7-0.4-1.4-0.6-2C50.8,20.1,50.2,19.6,49.5,19.6z
			 M15.1,17.9c-0.6,0-1.1,0.4-1.4,0.9c-0.3,0.6-0.5,1.3-0.8,2c-0.3,0.8,0.2,1.6,0.9,1.9c0.2,0.1,0.3,0.1,0.5,0.1
			c0.6,0,1.2-0.4,1.4-1c0.2-0.6,0.4-1.2,0.7-1.7c0.2-0.4,0.2-0.8,0-1.1c-0.1-0.4-0.4-0.7-0.8-0.8C15.6,17.9,15.4,17.9,15.1,17.9z
			 M4.5,16.8c-0.4,1-0.8,2-1.1,3.1l-0.2,0.6h5l0.1-0.4c0.1-0.4,0.3-0.9,0.4-1.3l0.1-0.4c0.2-0.4,0.3-0.9,0.5-1.3l0.3-0.7H4.6
			L4.5,16.8z M45.7,12.7c-0.3,0-0.7,0.1-1,0.3c-0.3,0.3-0.5,0.6-0.5,1c0,0.4,0.1,0.8,0.3,1.1c0.4,0.5,0.8,1,1.1,1.5
			c0.3,0.4,0.7,0.7,1.2,0.7c0.3,0,0.6-0.1,0.8-0.3c0.3-0.2,0.6-0.6,0.6-1c0.1-0.4,0-0.8-0.2-1.1c-0.4-0.6-0.8-1.2-1.3-1.7
			C46.6,12.9,46.2,12.7,45.7,12.7z M19.6,11.3c-0.4,0-0.8,0.2-1.1,0.4c-0.5,0.5-1,1-1.4,1.6c-0.5,0.6-0.4,1.6,0.2,2.1
			c0.3,0.2,0.6,0.3,0.9,0.3c0.5,0,0.9-0.2,1.2-0.6c0.4-0.5,0.8-0.9,1.2-1.4c0.6-0.6,0.6-1.5,0-2.1C20.3,11.5,20,11.3,19.6,11.3z
			 M8.1,10.7c-1,1.3-1.9,2.6-2.6,4.1l-0.4,0.7H10l0.1-0.3l0.2-0.5c0.2-0.4,0.4-0.8,0.6-1.2l0.2-0.4c0.3-0.5,0.5-0.9,0.8-1.3
			c0.1-0.2,0.9-1.2,0.9-1.2L12,10.5H8.3L8.1,10.7z M39.6,7.8c-0.6,0-1.1,0.3-1.3,0.8c-0.4,0.7-0.1,1.6,0.7,2
			c0.5,0.3,1.1,0.6,1.6,0.9c0.2,0.2,0.5,0.2,0.8,0.2c0.5,0,1-0.3,1.3-0.7c0.5-0.7,0.3-1.6-0.4-2.1c-0.6-0.4-1.2-0.8-1.9-1.1
			C40.1,7.9,39.8,7.8,39.6,7.8z M26.1,7c-0.2,0-0.4,0-0.5,0.1c-0.7,0.3-1.3,0.5-2,0.9c-0.4,0.2-0.6,0.5-0.7,0.9
			C22.8,9.3,22.8,9.7,23,10c0.3,0.5,0.8,0.8,1.3,0.8c0.2,0,0.5-0.1,0.7-0.2c0.5-0.3,1.1-0.5,1.7-0.7c0.8-0.3,1.2-1.2,0.9-1.9
			C27.3,7.4,26.8,7,26.1,7z M13.4,5.6C12.2,6.5,11,7.5,9.9,8.7L9.1,9.5h4.7L14,9.2c0.1-0.1,0.2-0.3,0.4-0.4c0.2-0.2,0.3-0.4,0.5-0.6
			c0.2-0.2,0.4-0.4,0.6-0.6c0.2-0.2,0.4-0.4,0.6-0.6c0.2-0.2,0.5-0.4,0.7-0.6l1-0.9h-4.3L13.4,5.6z M32,6c-0.8,0-1.5,0.7-1.5,1.5
			C30.5,8.3,31.2,9,32,9c0.6,0,1.2,0,1.8,0.1c0.1,0,0.1,0,0.2,0c0.8,0,1.4-0.6,1.5-1.3c0-0.4-0.1-0.8-0.3-1.1
			c-0.3-0.3-0.6-0.5-1-0.6C33.4,6,32.7,6,32,6L32,6z M21.7,2c-1.5,0.3-3.1,0.9-4.7,1.6l-2,1h4.3l0.1-0.1c0.3-0.2,0.5-0.4,0.8-0.5
			c0.1-0.1,0.3-0.2,0.4-0.2l0.1-0.1c0.3-0.2,0.6-0.4,1-0.5L22,2.9l3.5-1.7L21.7,2z"/>
	</g>
	<path class="st1" d="M32,1c13.5,0,24.5,12.6,24.5,28S45.5,57,32,57c-0.9,0-1.9-0.1-2.9-0.2l-0.1,0l-0.1,0c-0.7,0.1-1.4,0.2-2,0.2
		l-4.6-2.3c0,0-0.1,0-0.1-0.1c-0.1,0-0.1-0.1-0.2-0.1c-0.3-0.2-0.6-0.3-0.9-0.5l-0.2-0.1c-0.1-0.1-0.2-0.1-0.4-0.2
		c-0.4-0.2-0.8-0.5-1.2-0.8c-0.2-0.1-0.4-0.3-0.5-0.4l-0.1,0l-0.2-0.1c-0.1-0.1-0.1-0.1-0.2-0.2L18,52h-0.2l-1.8-1.7
		c0,0-0.1-0.1-0.1-0.1c0,0-0.1-0.1-0.1-0.1c-0.2-0.2-0.4-0.4-0.6-0.6l-0.1-0.1c-0.2-0.2-0.3-0.3-0.5-0.5c-0.3-0.4-0.6-0.7-0.9-1.1
		c-0.1-0.1-0.2-0.2-0.3-0.4l0-0.1L13.3,47h-0.1l-1-1.5c-0.2-0.3-0.4-0.6-0.5-0.9c-0.1-0.1-0.1-0.2-0.1-0.3l-0.1-0.2
		c-0.2-0.4-0.4-0.8-0.6-1.1l0-0.1c-0.1-0.1-0.1-0.3-0.2-0.4c-0.2-0.3-0.3-0.7-0.5-1L9.9,41h0l-0.5-1.3c0-0.1-0.1-0.2-0.1-0.3l0-0.1
		L9.1,39c-0.2-0.6-0.4-1.2-0.5-1.8l0-0.1l-0.1-0.2l0-0.2L8.3,36h0L8,34.8c-0.1-0.6-0.2-1.1-0.3-1.6l0-0.1l0,0
		c-0.1-0.4-0.1-0.8-0.1-1.2L7.5,31h0l0-1l0-0.1c0-0.3,0-0.5,0-0.8c0-0.6,0-1.2,0.1-1.9L7.6,26h0l0.1-0.9l0-0.1l0-0.1l0-0.1
		c0.1-0.6,0.2-1.2,0.3-1.8l0.1-0.2l0-0.1l0-0.1l0-0.2L8.5,21h0l0.2-0.7C8.8,19.9,9,19.4,9.1,19l0.1-0.2l0-0.1
		c0.2-0.4,0.3-0.9,0.5-1.3l0.5-1.4H9.7l0.7-0.1l0.3-0.6c0-0.1,0.1-0.2,0.1-0.3l0.1-0.2c0.2-0.4,0.4-0.8,0.6-1.1l0.1-0.2
		c0-0.1,0.1-0.2,0.1-0.3c0.3-0.4,0.5-0.9,0.8-1.3c0.1-0.1,0.2-0.3,0.3-0.4l0.1-0.1l1.1-1.6H14l0.3-0.4l0.1-0.1
		c0.1-0.1,0.2-0.3,0.3-0.4c0.2-0.2,0.3-0.4,0.5-0.5l0,0c0.2-0.2,0.4-0.4,0.6-0.6l0,0c0.2-0.2,0.3-0.4,0.5-0.5
		c0.2-0.2,0.5-0.4,0.7-0.6l2-1.8h0.2l0.3-0.2c0.3-0.2,0.5-0.3,0.8-0.5c0.1-0.1,0.2-0.1,0.4-0.2L21,4c0.3-0.2,0.6-0.4,0.9-0.5
		c0.1,0,0.1-0.1,0.2-0.1c0,0,0.1,0,0.1-0.1L26.9,1c0.6,0,1.3,0.1,2,0.2l0.1,0l0.1,0C30.1,1.1,31.1,1,32,1 M33.9,9.6
		c1,0,1.9-0.8,2-1.8c0.1-0.5-0.1-1.1-0.4-1.5c-0.3-0.4-0.8-0.7-1.3-0.7c-0.7-0.1-1.4-0.1-2.2-0.1c-1.1,0-2,0.9-2,2c0,1.1,0.9,2,2,2
		c0.6,0,1.1,0,1.7,0.1C33.8,9.6,33.9,9.6,33.9,9.6 M24.3,11.3c0.3,0,0.6-0.1,0.9-0.2c0.5-0.3,1.1-0.5,1.6-0.7c1-0.4,1.6-1.5,1.2-2.6
		c-0.3-0.8-1-1.3-1.9-1.3c-0.2,0-0.5,0-0.7,0.1c-0.7,0.3-1.4,0.6-2,0.9c-0.5,0.2-0.8,0.7-1,1.2c-0.2,0.5-0.1,1.1,0.1,1.5
		C22.9,10.9,23.6,11.3,24.3,11.3 M41.3,12.3c0.7,0,1.3-0.3,1.7-0.9c0.6-0.9,0.3-2.2-0.6-2.8c-0.6-0.4-1.3-0.8-1.9-1.1
		c-0.3-0.1-0.6-0.2-0.9-0.2c-0.8,0-1.4,0.4-1.8,1.1c-0.5,1-0.1,2.2,0.9,2.7c0.5,0.3,1,0.6,1.5,0.9C40.5,12.2,40.9,12.3,41.3,12.3
		 M18.2,16.3c0.6,0,1.2-0.3,1.5-0.7c0.4-0.5,0.8-0.9,1.2-1.3c0.8-0.8,0.8-2.1,0-2.8c-0.4-0.4-0.9-0.6-1.4-0.6c-0.5,0-1,0.2-1.4,0.6
		c-0.5,0.5-1,1.1-1.5,1.6c-0.7,0.9-0.6,2.1,0.3,2.8C17.3,16.2,17.8,16.3,18.2,16.3 M46.9,17.8c0.4,0,0.8-0.1,1.1-0.3
		c0.4-0.3,0.7-0.8,0.8-1.3c0.1-0.5,0-1.1-0.3-1.5c-0.4-0.6-0.8-1.2-1.3-1.7c-0.4-0.5-0.9-0.7-1.5-0.7c-0.5,0-0.9,0.2-1.3,0.5
		c-0.9,0.7-1,2-0.3,2.8c0.4,0.5,0.7,0.9,1.1,1.4C45.6,17.5,46.2,17.8,46.9,17.8 M14.4,23.2c0.9,0,1.6-0.5,1.9-1.4
		c0.2-0.6,0.4-1.1,0.7-1.7c0.4-1,0-2.2-1-2.6c-0.3-0.1-0.5-0.2-0.8-0.2c-0.8,0-1.5,0.5-1.8,1.2c-0.3,0.7-0.5,1.3-0.8,2
		c-0.4,1,0.2,2.2,1.3,2.5C14,23.2,14.2,23.2,14.4,23.2 M50.1,25c0.2,0,0.3,0,0.5-0.1c0.5-0.1,1-0.5,1.2-0.9c0.3-0.5,0.4-1,0.2-1.5
		c-0.2-0.7-0.4-1.4-0.6-2.1c-0.3-0.8-1-1.4-1.9-1.4c-0.2,0-0.4,0-0.7,0.1c-1,0.4-1.6,1.5-1.2,2.5c0.2,0.6,0.4,1.1,0.5,1.7
		C48.4,24.4,49.2,25,50.1,25 M13.2,31c1.1,0,2-0.9,2-2c0-0.6,0-1.2,0.1-1.8c0.1-1.1-0.7-2.1-1.8-2.2c0,0-0.1,0-0.1,0
		c-1,0-1.9,0.8-2,1.8c-0.1,0.7-0.1,1.4-0.1,2.1C11.2,30.1,12.1,31,13.2,31 M50.8,32.9c1,0,1.9-0.8,2-1.8c0.1-0.7,0.1-1.4,0.1-2.1
		v-0.1c0-1.1-0.9-2-2-2c-1.1,0-2,0.9-2,2c0,0.6,0,1.2-0.1,1.8c0,0.5,0.1,1,0.5,1.5c0.3,0.4,0.8,0.7,1.4,0.7
		C50.7,32.9,50.7,32.9,50.8,32.9 M14.4,38.8c0.2,0,0.4,0,0.6-0.1c1-0.4,1.6-1.5,1.2-2.5c-0.2-0.6-0.4-1.1-0.5-1.7
		c-0.2-0.9-1-1.5-1.9-1.5c-0.2,0-0.3,0-0.5,0.1c-1.1,0.3-1.7,1.4-1.5,2.4c0.2,0.7,0.4,1.4,0.6,2.1C12.8,38.3,13.6,38.8,14.4,38.8
		 M48.9,40.6c0.8,0,1.5-0.5,1.8-1.2c0.3-0.7,0.5-1.3,0.8-2c0.2-0.5,0.1-1.1-0.1-1.5c-0.2-0.5-0.6-0.8-1.2-1
		c-0.2-0.1-0.4-0.1-0.6-0.1c-0.9,0-1.6,0.5-1.9,1.4c-0.2,0.6-0.4,1.1-0.7,1.7c-0.4,1,0,2.2,1,2.6C48.3,40.5,48.6,40.6,48.9,40.6
		 M18.3,45.7c0.5,0,0.9-0.2,1.3-0.5c0.9-0.7,1-2,0.3-2.8c-0.4-0.5-0.7-0.9-1.1-1.4c-0.4-0.6-1-0.9-1.7-0.9c-0.4,0-0.8,0.1-1.1,0.3
		c-0.9,0.6-1.2,1.9-0.5,2.8c0.4,0.6,0.8,1.2,1.3,1.7C17.1,45.5,17.7,45.7,18.3,45.7 M44.5,47.1c0.5,0,1-0.2,1.4-0.6
		c0.5-0.5,1-1.1,1.5-1.6c0.7-0.9,0.6-2.1-0.3-2.8c-0.4-0.3-0.8-0.4-1.3-0.4c-0.6,0-1.2,0.3-1.6,0.7c-0.4,0.5-0.8,0.9-1.2,1.3
		c-0.8,0.8-0.8,2.1,0,2.8C43.4,46.9,43.9,47.1,44.5,47.1 M24.4,50.7c0.8,0,1.4-0.4,1.8-1.1c0.2-0.5,0.3-1,0.1-1.5
		c-0.2-0.5-0.5-0.9-1-1.2c-0.5-0.3-1-0.6-1.5-0.9c-0.3-0.2-0.7-0.3-1.1-0.3c-0.7,0-1.3,0.3-1.7,0.9c-0.6,0.9-0.3,2.2,0.6,2.8
		c0.6,0.4,1.3,0.8,1.9,1.1C23.7,50.6,24.1,50.7,24.4,50.7 M37.9,51.4c0.2,0,0.5,0,0.7-0.1c0.7-0.3,1.4-0.6,2-0.9
		c0.5-0.2,0.8-0.7,1-1.2c0.2-0.5,0.1-1.1-0.1-1.5c-0.3-0.7-1-1.1-1.8-1.1c-0.3,0-0.6,0.1-0.9,0.2c-0.5,0.3-1.1,0.5-1.6,0.7
		c-0.5,0.2-0.9,0.6-1.1,1c-0.2,0.5-0.2,1,0,1.5C36.3,50.9,37.1,51.4,37.9,51.4 M32,52.5L32,52.5c1.2,0,2-0.9,2-2c0-1.1-0.9-2-2-2
		c-0.6,0-1.2,0-1.8-0.1c-0.1,0-0.1,0-0.2,0c-1,0-1.9,0.8-2,1.8c-0.1,0.5,0.1,1.1,0.4,1.5c0.3,0.4,0.8,0.7,1.3,0.7
		C30.5,52.5,31.3,52.5,32,52.5 M17.6,2.7C17.3,2.8,17,3,16.8,3.1l-0.2,0.1C16.9,3,17.3,2.9,17.6,2.7 M12.3,5.8
		c-1,0.7-1.9,1.6-2.7,2.5L9,8.8C10,7.7,11.1,6.7,12.3,5.8 M8,10l-0.3,0.4c-1,1.3-1.9,2.7-2.7,4.1L4.8,15C5.7,13.2,6.8,11.5,8,10
		L8,10L8,10 M4.3,16L4.3,16L4.3,16L4.3,16L4.3,16 M4.3,16.1l-0.2,0.5c-0.4,1-0.8,2.1-1.1,3.1l-0.2,0.7C3.1,18.9,3.6,17.5,4.3,16.1
		L4.3,16.1 M2.5,21L2.5,21L2.5,21L2.5,21L2.5,21L2.5,21 M2.2,22.3c-0.2,0.8-0.3,1.6-0.4,2.6L1.6,26C1.8,24.7,2,23.5,2.2,22.3
		 M1.6,26.1l-0.1,0.8c0,0.8-0.1,1.4-0.1,2.1C1.5,28,1.5,27.1,1.6,26.1 M1.5,29c0,0.2,0,0.5,0,0.7c0,0.1,0,0.2,0,0.4l0,1h0
		C1.5,30.3,1.5,29.7,1.5,29 M1.6,31.1l0.1,1c0.1,1,0.2,2,0.5,3.1L2.3,36h0C1.9,34.4,1.7,32.8,1.6,31.1 M2.3,36.2l0.3,1.1
		c0.3,1.1,0.6,2.1,1,3.1L3.9,41h0l0,0l0,0l0,0C3.2,39.4,2.7,37.8,2.3,36.2 M4.2,41.7l0.4,0.8c0.7,1.5,1.5,2.9,2.4,4.1L7.3,47h0l0,0
		C6,45.4,5,43.6,4.2,41.7 M14.1,53.5l0.6,0.4c1.8,1.1,3.7,1.9,5.7,2.4C18.3,55.7,16.1,54.8,14.1,53.5 M32,0c-1,0-2,0.1-3,0.2
		C28,0.1,27,0,26,0C18.6,0,12,3.6,7.3,9.3c0,0-0.1,0.1-0.1,0.1c-1.5,1.8-2.8,3.9-3.8,6.1c0,0,0,0.1-0.1,0.1
		c-0.7,1.6-1.3,3.2-1.8,4.9c0,0.1-0.1,0.2-0.1,0.3c-0.7,2.6-1,5.3-1,8.1c0,4.4,0.9,8.6,2.4,12.3c0,0,0,0.1,0,0.1
		c0.9,2.2,2.1,4.3,3.5,6.1c0,0,0.1,0.1,0.1,0.1c1.4,1.9,3,3.5,4.7,4.9c0.1,0.1,0.1,0.1,0.2,0.1C15.6,56.1,20.6,58,26,58
		c1,0,2-0.1,3-0.2c1,0.1,2,0.2,3,0.2c14.1,0,25.5-13,25.5-29S46.1,0,32,0L32,0z M17.2,4c1.5-0.7,3-1.2,4.6-1.6
		c-0.1,0.1-0.2,0.1-0.3,0.2c-0.3,0.2-0.7,0.4-1,0.5c-0.2,0.1-0.4,0.2-0.5,0.3c-0.3,0.2-0.5,0.3-0.8,0.5H17.2L17.2,4z M10.3,9
		c1.1-1.1,2.2-2.1,3.5-3h2.8c-0.2,0.2-0.5,0.4-0.7,0.7c-0.2,0.2-0.4,0.4-0.6,0.6c-0.2,0.2-0.4,0.4-0.6,0.6C14.4,8,14.2,8.2,14,8.4
		c-0.2,0.2-0.3,0.4-0.5,0.6H10.3L10.3,9z M33.9,8.6c0,0-0.1,0-0.1,0c-0.6-0.1-1.2-0.1-1.8-0.1c-0.6,0-1-0.4-1-1c0-0.6,0.4-1,1-1h0
		c0.7,0,1.4,0,2,0.1c0.5,0.1,0.9,0.6,0.9,1.1C34.9,8.2,34.4,8.6,33.9,8.6L33.9,8.6z M24.3,10.3c-0.4,0-0.7-0.2-0.9-0.5
		c-0.3-0.5-0.1-1.1,0.4-1.3c0.6-0.3,1.3-0.6,1.9-0.8c0.1,0,0.2-0.1,0.4-0.1c0.4,0,0.8,0.2,0.9,0.6c0.2,0.5-0.1,1.1-0.6,1.3
		c-0.6,0.2-1.2,0.5-1.7,0.8C24.6,10.3,24.5,10.3,24.3,10.3L24.3,10.3z M41.3,11.3c-0.2,0-0.4-0.1-0.5-0.2c-0.5-0.3-1.1-0.7-1.6-0.9
		c-0.5-0.2-0.7-0.9-0.4-1.3c0.2-0.3,0.5-0.5,0.9-0.5c0.2,0,0.3,0,0.4,0.1c0.6,0.3,1.2,0.7,1.8,1c0.5,0.3,0.6,0.9,0.3,1.4
		C42,11.1,41.6,11.3,41.3,11.3L41.3,11.3z M5.9,15c0.8-1.4,1.6-2.8,2.6-4H12c-0.1,0.2-0.2,0.3-0.4,0.5c-0.3,0.4-0.6,0.9-0.9,1.4
		c-0.1,0.1-0.2,0.3-0.2,0.4c-0.2,0.4-0.4,0.8-0.6,1.2c-0.1,0.1-0.2,0.3-0.2,0.4c0,0,0,0,0,0.1H5.9L5.9,15z M18.2,15.3
		c-0.2,0-0.4-0.1-0.6-0.2c-0.4-0.3-0.5-1-0.1-1.4c0.4-0.5,0.9-1.1,1.4-1.5c0.2-0.2,0.5-0.3,0.7-0.3c0.3,0,0.5,0.1,0.7,0.3
		c0.4,0.4,0.4,1,0,1.4C19.8,14,19.4,14.5,19,15C18.8,15.2,18.5,15.3,18.2,15.3L18.2,15.3z M46.9,16.8c-0.3,0-0.6-0.2-0.8-0.4
		c-0.4-0.5-0.7-1-1.1-1.5c-0.4-0.4-0.3-1.1,0.1-1.4c0.2-0.2,0.4-0.2,0.6-0.2c0.3,0,0.6,0.1,0.8,0.4c0.4,0.5,0.9,1.1,1.2,1.7
		c0.3,0.5,0.2,1.1-0.3,1.4C47.3,16.8,47.1,16.8,46.9,16.8L46.9,16.8z M3.9,20c0.3-1,0.7-2,1.1-3h3.8c-0.2,0.4-0.3,0.9-0.5,1.3
		c0,0.1-0.1,0.2-0.1,0.4C8,19.1,7.9,19.6,7.8,20H3.9L3.9,20z M14.4,22.2c-0.1,0-0.2,0-0.3-0.1c-0.5-0.2-0.8-0.7-0.6-1.3
		c0.2-0.7,0.5-1.3,0.7-1.9c0.2-0.4,0.5-0.6,0.9-0.6c0.1,0,0.3,0,0.4,0.1c0.5,0.2,0.7,0.8,0.5,1.3c-0.3,0.6-0.5,1.2-0.7,1.8
		C15.2,22,14.8,22.2,14.4,22.2L14.4,22.2z M50.1,24c-0.4,0-0.9-0.3-1-0.8c-0.2-0.6-0.3-1.2-0.5-1.8c-0.2-0.5,0.1-1.1,0.6-1.3
		c0.1,0,0.2-0.1,0.3-0.1c0.4,0,0.8,0.3,0.9,0.7c0.2,0.6,0.4,1.3,0.6,2c0.1,0.5-0.2,1.1-0.7,1.2C50.3,24,50.2,24,50.1,24L50.1,24z
		 M2.8,25c0.1-1,0.3-2,0.5-3h3.9c0,0.1,0,0.2-0.1,0.4c0,0.1-0.1,0.3-0.1,0.4C7,23.4,6.9,24,6.8,24.7c0,0,0,0.1,0,0.1
		c0,0.1,0,0.2,0,0.3H2.8L2.8,25z M13.2,30c-0.6,0-1-0.4-1-1v0c0-0.7,0-1.4,0.1-2c0-0.5,0.5-0.9,1-0.9c0,0,0,0,0.1,0
		c0.6,0,1,0.5,0.9,1.1c0,0.6-0.1,1.3-0.1,1.9C14.2,29.6,13.7,30,13.2,30L13.2,30z M2.5,30c0-0.3,0-0.7,0-1c0-0.7,0-1.3,0.1-2h4
		c0,0,0,0,0,0c0,0.6-0.1,1.3-0.1,2c0,0.3,0,0.7,0,1H2.5L2.5,30z M50.8,31.9C50.7,31.9,50.7,31.9,50.8,31.9c-0.6,0-1-0.5-1-1.1
		c0-0.6,0.1-1.2,0.1-1.8c0-0.6,0.4-1,1-1c0.6,0,1,0.4,1,1V29c0,0.7,0,1.3-0.1,2C51.7,31.5,51.3,31.9,50.8,31.9L50.8,31.9z M3.1,35
		c-0.2-1-0.3-2-0.4-3h4c0,0.4,0.1,0.8,0.1,1.3c0,0,0,0.1,0,0.1C6.9,33.9,7,34.5,7.1,35H3.1L3.1,35z M14.4,37.8
		c-0.4,0-0.8-0.3-0.9-0.7c-0.2-0.6-0.4-1.3-0.6-2c-0.1-0.5,0.2-1.1,0.7-1.2c0.1,0,0.2,0,0.2,0c0.4,0,0.9,0.3,1,0.8
		c0.2,0.6,0.3,1.2,0.5,1.8c0.2,0.5-0.1,1.1-0.6,1.3C14.7,37.8,14.6,37.8,14.4,37.8L14.4,37.8z M48.9,39.6c-0.1,0-0.3,0-0.4-0.1
		c-0.5-0.2-0.7-0.8-0.5-1.3c0.3-0.6,0.5-1.2,0.7-1.8c0.1-0.4,0.5-0.7,0.9-0.7c0.1,0,0.2,0,0.3,0.1c0.5,0.2,0.8,0.7,0.6,1.3
		c-0.2,0.7-0.5,1.3-0.7,1.9C49.6,39.4,49.3,39.6,48.9,39.6L48.9,39.6z M4.6,40c-0.4-1-0.7-2-1-3h3.9c0,0.1,0.1,0.2,0.1,0.4
		c0,0,0,0.1,0,0.1c0.2,0.6,0.4,1.2,0.5,1.8c0,0.1,0.1,0.2,0.1,0.4c0,0.1,0.1,0.2,0.1,0.3H4.6L4.6,40z M18.3,44.7
		c-0.3,0-0.6-0.1-0.8-0.4c-0.4-0.5-0.9-1.1-1.2-1.7c-0.3-0.5-0.2-1.1,0.3-1.4c0.2-0.1,0.4-0.2,0.6-0.2c0.3,0,0.6,0.2,0.8,0.4
		c0.4,0.5,0.7,1,1.1,1.5c0.3,0.4,0.3,1.1-0.1,1.4C18.7,44.6,18.5,44.7,18.3,44.7L18.3,44.7z M7.8,46c-0.9-1.2-1.7-2.6-2.3-4h3.8
		c0.2,0.4,0.3,0.7,0.5,1.1c0.1,0.1,0.1,0.3,0.2,0.4c0.2,0.4,0.4,0.8,0.6,1.2c0.1,0.1,0.2,0.3,0.2,0.4c0.2,0.3,0.4,0.6,0.5,0.9H7.8
		L7.8,46z M44.5,46.1c-0.3,0-0.5-0.1-0.7-0.3c-0.4-0.4-0.4-1,0-1.4c0.4-0.4,0.9-0.9,1.3-1.4c0.2-0.2,0.5-0.4,0.8-0.4
		c0.2,0,0.4,0.1,0.6,0.2c0.4,0.3,0.5,1,0.1,1.4c-0.4,0.5-0.9,1.1-1.4,1.5C45,46,44.7,46.1,44.5,46.1L44.5,46.1z M24.4,49.7
		c-0.2,0-0.3,0-0.5-0.1c-0.6-0.3-1.2-0.7-1.8-1c-0.5-0.3-0.6-0.9-0.3-1.4c0.2-0.3,0.5-0.5,0.8-0.5c0.2,0,0.4,0.1,0.5,0.2
		c0.5,0.3,1.1,0.7,1.6,0.9c0.5,0.3,0.7,0.9,0.4,1.3C25.1,49.5,24.7,49.7,24.4,49.7L24.4,49.7z M37.9,50.4c-0.4,0-0.8-0.2-0.9-0.6
		c-0.2-0.5,0.1-1.1,0.6-1.3c0.6-0.2,1.1-0.5,1.7-0.8c0.1-0.1,0.3-0.1,0.5-0.1c0.4,0,0.7,0.2,0.9,0.5c0.3,0.5,0.1,1.1-0.4,1.3
		c-0.6,0.3-1.3,0.6-1.9,0.8C38.1,50.4,38,50.4,37.9,50.4L37.9,50.4z M12.4,51c-1.1-0.9-2.1-1.9-3.1-3h3.4c0.1,0.1,0.2,0.3,0.3,0.4
		c0.3,0.4,0.6,0.8,0.9,1.1c0.2,0.2,0.4,0.4,0.6,0.6c0.2,0.2,0.4,0.4,0.6,0.6c0.1,0.1,0.2,0.2,0.2,0.2H12.4L12.4,51z M32,51.5
		c-0.7,0-1.4,0-2.1-0.1c-0.5-0.1-0.9-0.6-0.9-1.1c0.1-0.5,0.5-0.9,1-0.9c0,0,0.1,0,0.1,0c0.6,0.1,1.2,0.1,1.9,0.1c0.6,0,1,0.4,1,1
		C33,51.1,32.6,51.5,32,51.5L32,51.5L32,51.5z M21.8,55.6c-2.3-0.5-4.5-1.4-6.5-2.6h2.4c0.1,0.1,0.3,0.2,0.4,0.3
		c0.2,0.2,0.4,0.3,0.6,0.5c0.4,0.3,0.8,0.5,1.2,0.8c0.2,0.1,0.4,0.2,0.5,0.3c0.3,0.2,0.6,0.4,1,0.5C21.5,55.4,21.6,55.5,21.8,55.6
		L21.8,55.6z"/>
</g>
</svg>
