<?xml version="1.0" encoding="utf-8"?>
<!-- Generator: Adobe Illustrator 21.0.0, SVG Export Plug-In . SVG Version: 6.00 Build 0)  -->
<svg version="1.1" id="Capa_1" xmlns="http://www.w3.org/2000/svg" xmlns:xlink="http://www.w3.org/1999/xlink" x="0px" y="0px"
	 viewBox="0 0 56 56" style="enable-background:new 0 0 56 56;" xml:space="preserve">
<style type="text/css">
	.st0{fill:#FFD949;}
	.st1{fill:#F4BF1A;}
	.st2{fill:#7C5C01;}
</style>
<g id="XMLID_100_">
	<path id="XMLID_99_" class="st0" d="M31,56C17.5,56,6.5,43.5,6.5,28S17.5,0,31,0s24.5,12.5,24.5,28S44.5,56,31,56"/>
	<path id="XMLID_132_" class="st1" d="M6.5,28C6.5,13.7,15.9,1.9,28,0.2C27,0.1,26,0,25,0C11.5,0,0.5,12.5,0.5,28s11,28,24.5,28
		c1,0,2-0.1,3-0.2C15.9,54.1,6.5,42.3,6.5,28"/>
	<path id="XMLID_115_" class="st2" d="M31.1,50.5L31.1,50.5c-0.8,0-1.5,0-2.2-0.1c-0.5-0.1-0.9-0.6-0.9-1.1c0.1-0.5,0.6-0.9,1.1-0.9
		c0.6,0.1,1.2,0.1,1.9,0.1c0.6,0,1,0.4,1,1C32,50.1,31.6,50.5,31.1,50.5 M36.9,49.4c-0.4,0-0.8-0.2-0.9-0.6
		c-0.2-0.5,0.1-1.1,0.6-1.3c0.6-0.2,1.2-0.5,1.7-0.8c0.5-0.3,1.1-0.1,1.3,0.4c0.3,0.5,0.1,1.1-0.4,1.3c-0.6,0.3-1.3,0.6-1.9,0.8
		C37.1,49.4,37,49.4,36.9,49.4 M23.4,48.7c-0.2,0-0.3,0-0.5-0.1c-0.6-0.3-1.2-0.7-1.8-1c-0.5-0.3-0.6-0.9-0.3-1.4
		c0.3-0.5,0.9-0.6,1.4-0.3c0.5,0.3,1.1,0.7,1.6,0.9c0.5,0.3,0.7,0.9,0.4,1.3C24.1,48.5,23.7,48.7,23.4,48.7 M43.5,45.1
		c-0.3,0-0.5-0.1-0.7-0.3c-0.4-0.4-0.4-1,0-1.4c0.4-0.4,0.9-0.9,1.3-1.4c0.3-0.4,1-0.5,1.4-0.1s0.5,1,0.1,1.4
		c-0.4,0.5-0.9,1.1-1.4,1.5C44,45,43.7,45.1,43.5,45.1 M17.3,43.7c-0.3,0-0.6-0.1-0.8-0.4c-0.4-0.5-0.9-1.1-1.2-1.7
		c-0.3-0.5-0.2-1.1,0.3-1.4c0.5-0.3,1.1-0.2,1.4,0.3c0.4,0.5,0.7,1,1.1,1.5c0.4,0.4,0.3,1.1-0.1,1.4C17.7,43.6,17.5,43.7,17.3,43.7
		 M47.9,38.6c-0.1,0-0.3,0-0.4-0.1c-0.5-0.2-0.7-0.8-0.5-1.3c0.3-0.6,0.5-1.2,0.7-1.8c0.2-0.5,0.7-0.8,1.3-0.6
		c0.5,0.2,0.8,0.7,0.6,1.3c-0.2,0.7-0.5,1.3-0.7,1.9C48.6,38.4,48.3,38.6,47.9,38.6 M13.4,36.8c-0.4,0-0.8-0.3-0.9-0.7
		c-0.2-0.6-0.4-1.3-0.6-2c-0.1-0.5,0.2-1.1,0.7-1.2c0.5-0.1,1.1,0.2,1.2,0.7c0.2,0.6,0.3,1.2,0.5,1.8c0.2,0.5-0.1,1.1-0.6,1.3
		C13.7,36.8,13.6,36.8,13.4,36.8 M49.8,30.9C49.7,30.9,49.7,30.9,49.8,30.9c-0.6,0-1-0.5-1-1.1c0-0.6,0.1-1.2,0.1-1.8
		c0-0.6,0.4-1,1-1s1,0.4,1,1V28c0,0.7,0,1.3-0.1,2C50.7,30.5,50.3,30.9,49.8,30.9 M12.2,29c-0.6,0-1-0.4-1-1v0c0-0.7,0-1.4,0.1-2
		c0-0.5,0.5-1,1.1-0.9c0.6,0,1,0.5,0.9,1.1c0,0.6-0.1,1.3-0.1,1.9C13.2,28.6,12.7,29,12.2,29 M49.1,23c-0.4,0-0.9-0.3-1-0.8
		c-0.2-0.6-0.3-1.2-0.5-1.8c-0.2-0.5,0.1-1.1,0.6-1.3c0.5-0.2,1.1,0.1,1.3,0.6c0.2,0.6,0.4,1.3,0.6,2c0.1,0.5-0.2,1.1-0.7,1.2
		C49.3,23,49.2,23,49.1,23 M13.4,21.2c-0.1,0-0.2,0-0.3-0.1c-0.5-0.2-0.8-0.7-0.6-1.3c0.2-0.6,0.5-1.3,0.7-1.9
		c0.2-0.5,0.8-0.7,1.3-0.5c0.5,0.2,0.7,0.8,0.5,1.3c-0.3,0.6-0.5,1.2-0.7,1.8C14.2,21,13.8,21.2,13.4,21.2 M45.9,15.8
		c-0.3,0-0.6-0.2-0.8-0.4c-0.4-0.5-0.7-1-1.1-1.5c-0.4-0.4-0.3-1.1,0.1-1.4c0.4-0.4,1.1-0.3,1.4,0.1c0.4,0.5,0.9,1.1,1.2,1.7
		c0.3,0.5,0.2,1.1-0.3,1.4C46.3,15.8,46.1,15.8,45.9,15.8 M17.2,14.3c-0.2,0-0.4-0.1-0.6-0.2c-0.4-0.3-0.5-1-0.1-1.4
		c0.4-0.5,0.9-1.1,1.4-1.5c0.4-0.4,1-0.4,1.4,0c0.4,0.4,0.4,1,0,1.4C18.8,13,18.4,13.5,18,14C17.8,14.2,17.5,14.3,17.2,14.3
		 M40.3,10.3c-0.2,0-0.4-0.1-0.5-0.2c-0.5-0.3-1.1-0.7-1.6-0.9c-0.5-0.2-0.7-0.9-0.4-1.3C38,7.4,38.6,7.2,39,7.4
		c0.6,0.3,1.2,0.7,1.8,1c0.5,0.3,0.6,0.9,0.3,1.4C41,10.1,40.6,10.3,40.3,10.3 M23.3,9.3c-0.4,0-0.7-0.2-0.9-0.5
		c-0.3-0.5-0.1-1.1,0.4-1.3c0.6-0.3,1.3-0.6,1.9-0.8c0.5-0.2,1.1,0.1,1.3,0.6c0.2,0.5-0.1,1.1-0.6,1.3c-0.6,0.2-1.2,0.5-1.7,0.8
		C23.6,9.3,23.5,9.3,23.3,9.3 M32.9,7.6c0,0-0.1,0-0.1,0c-0.6-0.1-1.2-0.1-1.8-0.1c-0.6,0-1-0.4-1-1s0.4-1,1-1h0c0.7,0,1.4,0,2,0.1
		c0.5,0.1,0.9,0.6,0.9,1.1C33.9,7.2,33.4,7.6,32.9,7.6"/>
	<path id="XMLID_114_" class="st2" d="M6.5,29h-6c0,0.7,0.1,1.3,0.1,2h6C6.6,30.3,6.5,29.7,6.5,29"/>
	<path id="XMLID_113_" class="st2" d="M6.7,24h-6c-0.1,0.7-0.1,1.3-0.2,2h6C6.6,25.3,6.6,24.7,6.7,24"/>
	<path id="XMLID_112_" class="st2" d="M7,34H1c0.1,0.7,0.3,1.3,0.5,2h6C7.3,35.3,7.2,34.7,7,34"/>
	<path id="XMLID_111_" class="st2" d="M8.4,39h-6c0.3,0.7,0.5,1.3,0.8,2h6C9,40.3,8.7,39.7,8.4,39"/>
	<path id="XMLID_110_" class="st2" d="M7.8,19h-6c-0.2,0.7-0.4,1.3-0.5,2h6C7.4,20.3,7.6,19.7,7.8,19"/>
	<path id="XMLID_109_" class="st2" d="M9.8,14h-6c-0.3,0.7-0.6,1.3-0.9,2h6C9.1,15.3,9.4,14.7,9.8,14"/>
	<path id="XMLID_108_" class="st2" d="M13.8,8h-6c-0.6,0.6-1.1,1.3-1.6,2h6C12.7,9.3,13.3,8.6,13.8,8"/>
	<path id="XMLID_107_" class="st2" d="M20,3h-6c-1,0.6-2,1.3-2.9,2h6C18,4.3,18.9,3.6,20,3"/>
	<path id="XMLID_106_" class="st2" d="M11.5,45h-6c0.5,0.7,1,1.4,1.5,2h6C12.5,46.4,12,45.7,11.5,45"/>
	<path id="XMLID_105_" class="st2" d="M9.8,50c0.8,0.7,1.6,1.4,2.5,2h6c-0.9-0.6-1.7-1.3-2.5-2H9.8z"/>
</g>
</svg>
