<?xml version="1.0" encoding="utf-8"?>
<!-- Generator: Adobe Illustrator 21.0.0, SVG Export Plug-In . SVG Version: 6.00 Build 0)  -->
<svg version="1.1" id="Layer_1" xmlns="http://www.w3.org/2000/svg" xmlns:xlink="http://www.w3.org/1999/xlink" x="0px" y="0px"
	 viewBox="0 0 1200 850" style="enable-background:new 0 0 1200 850;" xml:space="preserve">
<style type="text/css">
	.st0{fill:#4D2F5E;stroke:#000000;stroke-miterlimit:10;}
	.st1{fill:url(#SVGID_1_);stroke:#000000;stroke-miterlimit:10;}
	.st2{fill:url(#SVGID_2_);stroke:#000000;stroke-miterlimit:10;}
	.st3{fill:url(#SVGID_3_);stroke:#000000;stroke-miterlimit:10;}
	.st4{fill:url(#SVGID_4_);stroke:#000000;stroke-miterlimit:10;}
</style>
<title>directions</title>
<path class="st0" d="M997.4,164"/>
<path class="st0" d="M961.6,185.9l-10.1,5.8c-1.8,1-3.7,1.5-5.8,1.5c-2,0-4-0.6-5.9-1.7c-1.8-1-2.8-2.2-2.8-3.4
	c0-1.2,0.9-2.3,2.7-3.4l10.1-5.8l1.1,0.7l-10.1,5.8c-1.5,0.9-2.3,1.8-2.3,2.8c0,0.9,0.8,1.9,2.3,2.8c1.5,0.9,3.1,1.3,4.7,1.3
	c1.7,0,3.2-0.4,4.7-1.2l10.3-5.9L961.6,185.9z"/>
<path class="st0" d="M970.9,196.5c-1.5,0.9-3.2,1.2-5,1.1s-3.7-0.7-5.6-1.8l-2.4-1.4l-6.5,3.7l-1.1-0.7l15.7-9l3.9,2.3
	C973.5,192.8,973.8,194.7,970.9,196.5z M958.7,193.8l2.2,1.2c1.7,1,3.4,1.6,4.7,1.7s2.7-0.2,4-0.9c1.2-0.7,1.7-1.5,1.5-2.2
	c-0.1-0.8-1-1.6-2.6-2.5l-2.6-1.5L958.7,193.8z"/>
<path class="st0" d="M202.6,727.5"/>
<path class="st0" d="M225.4,691.4c-2.6,1.5-5.3,2.3-8,2.3c-2.8,0-5.5-0.8-8.2-2.3l-3.8-2.2l15.7-9l4.2,2.5c2.6,1.5,3.8,2.9,3.8,4.4
	C229.2,688.4,227.9,689.9,225.4,691.4z M224.1,690.6c2.3-1.3,3.4-2.6,3.4-3.9s-1.2-2.6-3.4-3.9l-2.9-1.7l-13.8,7.9l2.6,1.5
	C214.8,693.3,219.5,693.3,224.1,690.6z"/>
<path class="st0" d="M242.1,701.1c-2.5,1.5-5.1,2.2-7.8,2.3c-2.7,0.1-5.2-0.4-7.4-1.7c-2.2-1.2-3.2-2.7-3-4.2
	c0.2-1.5,1.5-3.1,4.1-4.5c2.5-1.5,5.1-2.2,7.8-2.3c2.7-0.1,5.1,0.5,7.3,1.7c2.2,1.2,3.2,2.7,3,4.2
	C246,698.2,244.6,699.8,242.1,701.1z M229.2,693.7c-2.3,1.3-3.5,2.6-3.7,3.9c-0.2,1.3,0.6,2.5,2.5,3.6c1.9,1.1,3.9,1.6,6.2,1.5
	c2.2-0.1,4.4-0.8,6.7-2.1c2.3-1.3,3.5-2.6,3.7-3.9c0.2-1.2-0.7-2.5-2.6-3.6c-1.9-1.1-3.9-1.6-6.2-1.5
	C233.7,691.7,231.5,692.4,229.2,693.7z"/>
<path class="st0" d="M250.5,715.1l-0.9-0.5l8.6-9c0.7-0.7,1.3-1.3,1.8-1.7c-0.7,0.3-1.6,0.6-2.6,0.9c-1,0.4-6.3,2-15.9,5.2l-0.9-0.5
	l11.4-11.5l1.2,0.7l-7.4,7.4c-0.3,0.3-0.6,0.6-0.8,0.8c-0.2,0.2-0.5,0.5-0.7,0.7c-0.2,0.2-0.4,0.4-0.7,0.7s-0.4,0.4-0.7,0.6
	c1.2-0.4,3-1.1,5.5-1.9l12.2-3.9l1.2,0.7l-7.7,8.1c-0.9,0.9-1.7,1.7-2.3,2.2c0.6-0.2,1.2-0.5,2-0.7s6-2,15.7-5.2l1.1,0.7
	L250.5,715.1z"/>
<path class="st0" d="M269.1,725.8l-1.1-0.7l4.6-13.4l-0.1-0.1c-1.6,1-2.8,1.7-3.6,2.3l-10.1,5.9l-1.1-0.6l15.7-9l1.1,0.7l-4.6,13.4
	l0.1,0.1c1.2-0.8,2.4-1.5,3.6-2.2l10.2-5.9l1.1,0.6L269.1,725.8z"/>
<path class="st0" d="M232.7,210.1L217,201l1.1-0.7l14.7,8.5l7.5-4.3l1,0.6L232.7,210.1z"/>
<path class="st0" d="M252.5,198.6l-8.6,5l-15.7-9.1l8.6-5l1,0.6l-7.5,4.3l6,3.4l7.1-4.1l1,0.6l-7.1,4.1l6.8,3.9l7.5-4.3L252.5,198.6
	z"/>
<path class="st0" d="M257.2,195.9l-1.1,0.7l-15.7-9.1l8.6-5l1,0.6l-7.5,4.3l6.7,3.9l7.1-4.1l1,0.6l-7.1,4.1L257.2,195.9z"/>
<path class="st0" d="M271.2,187.8l-1.1,0.7l-14.7-8.5l-5.1,2.9l-1-0.6l11.3-6.5l1,0.6l-5.1,2.9L271.2,187.8z"/>
<path class="st0" d="M201.4,168.2"/>
<path class="st0" d="M930.9,721l6.9,3.9l-1.1,0.7l-15.7-9l3.7-2.2c2-1.1,3.7-1.7,5.4-1.9c1.7-0.1,3.2,0.2,4.7,1.1
	c1,0.6,1.7,1.3,1.8,2c0.1,0.7-0.1,1.5-0.9,2.3l11.4,1.7l-1.3,0.7l-10.9-1.6L930.9,721z M929.9,720.5l3-1.7c1.3-0.7,2-1.5,2.2-2.3
	s-0.4-1.5-1.5-2.1c-1.2-0.7-2.4-1-3.7-0.9c-1.2,0.1-2.7,0.6-4.3,1.5l-2.6,1.5L929.9,720.5z"/>
<path class="st0" d="M949.7,718l-15.7-9.1l1.1-0.7l15.7,9.1L949.7,718z"/>
<path class="st0" d="M953.4,706.8l5.8-3.4l7.2,4.2c-0.9,1.2-2.3,2.4-4.2,3.5c-2.5,1.5-5.1,2.1-7.8,2c-2.7-0.1-5.4-0.8-7.9-2.3
	c-1.6-0.9-2.7-2-3.3-3.1s-0.6-2.2-0.1-3.3c0.5-1.1,1.6-2.1,3.2-3c1.7-1,3.6-1.7,5.5-2.1l0.6,0.8c-2,0.4-3.7,1-5.2,1.9
	c-2,1.2-3.1,2.5-3,3.9c0.1,1.5,1.2,2.8,3.4,4.1c2.4,1.4,4.7,2,7.1,2.1c2.3,0,4.7-0.6,6.9-1.9c1.5-0.8,2.5-1.7,3.1-2.5l-5.5-3.2
	l-4.7,2.7L953.4,706.8z"/>
<path class="st0" d="M982.4,699.2l-1.1,0.7l-7.7-4.4l-9.2,5.3l7.7,4.4l-1.1,0.7l-15.7-9.2l1.1-0.7l7,4l9.2-5.3l-7-4l1.1-0.7
	L982.4,699.2z"/>
<path class="st0" d="M991,694.2l-1.1,0.7l-14.7-8.5l-5.1,2.9l-1-0.6l11.3-6.5l1,0.6l-5.1,2.9L991,694.2z"/>
<path class="st0" d="M998.8,728.7"/>
<path class="st0" d="M607.2,466.5"/>
<g>
	<linearGradient id="SVGID_1_" gradientUnits="userSpaceOnUse" x1="248.4234" y1="198.9316" x2="211.6447" y2="148.31">
		<stop  offset="0.1865" style="stop-color:#FFFFFF;stop-opacity:0"/>
		<stop  offset="0.9892" style="stop-color:#4D2F5E"/>
	</linearGradient>
	<path class="st1" d="M306,157.1l-109.9,4.5c-3.2,0.1-6.1,1.7-6.3,3.6l-7.7,63.6"/>
	
		<linearGradient id="SVGID_2_" gradientUnits="userSpaceOnUse" x1="249.4447" y1="441.3369" x2="212.666" y2="390.7153" gradientTransform="matrix(1 0 0 -1 0 1138.2676)">
		<stop  offset="0.1865" style="stop-color:#FFFFFF;stop-opacity:0"/>
		<stop  offset="0.9892" style="stop-color:#4D2F5E"/>
	</linearGradient>
	<path class="st2" d="M183.1,667.1l7.7,63.6c0.1,1.9,3.1,3.5,6.3,3.6l109.9,4.5"/>
	
		<linearGradient id="SVGID_3_" gradientUnits="userSpaceOnUse" x1="-285.1548" y1="194.3768" x2="-321.9335" y2="143.7553" gradientTransform="matrix(-1 0 0 1 665.0684 0)">
		<stop  offset="0.1865" style="stop-color:#FFFFFF;stop-opacity:0"/>
		<stop  offset="0.9892" style="stop-color:#4D2F5E"/>
	</linearGradient>
	<path class="st3" d="M1016.5,224.3l-7.7-63.6c-0.1-1.9-3.1-3.5-6.3-3.6l-109.9-4.5"/>
	
		<linearGradient id="SVGID_4_" gradientUnits="userSpaceOnUse" x1="-286.5082" y1="464.3878" x2="-323.2869" y2="413.7662" gradientTransform="matrix(-1 0 0 -1 665.0684 1162.2676)">
		<stop  offset="0.1865" style="stop-color:#FFFFFF;stop-opacity:0"/>
		<stop  offset="0.9892" style="stop-color:#4D2F5E"/>
	</linearGradient>
	<path class="st4" d="M894,739.7l109.9-4.5c3.2-0.1,6.1-1.7,6.3-3.6l7.7-63.6"/>
</g>
</svg>
