<?xml version="1.0" encoding="utf-8"?>
<!-- Generator: Adobe Illustrator 21.0.0, SVG Export Plug-In . SVG Version: 6.00 Build 0)  -->
<svg version="1.1" id="Layer_1" xmlns="http://www.w3.org/2000/svg" xmlns:xlink="http://www.w3.org/1999/xlink" x="0px" y="0px"
	 viewBox="0 0 512 512" style="enable-background:new 0 0 512 512;" xml:space="preserve">
<style type="text/css">
	.st0{fill:#FFFFFF;}
</style>
<g>
	<g>
		<path class="st0" d="M256,23.3c-74.2,0-127.8,55.3-136.3,114.7c-5.3,39.6,7.5,78.2,34.1,107.4c23.4,25,36.2,58.4,36.2,92.8
			l-0.1,54.2c0,21.9,18.1,39.6,40.5,39.6h52.2c22.4,0,40.5-17.7,40.5-39.6l0.1-54.2c0-35.4,11.7-67.8,34.1-90.7
			c24.5-25,37.3-57.3,37.3-90.7C394.5,82.7,331.6,23.3,256,23.3L256,23.3z M302.8,392.4c0,10.4-8.5,18.8-19.2,18.8h-52.2
			c-10.7,0-19.2-8.3-19.2-18.8v-24h90.5v24H302.8z M342.4,232.9c-26.6,27.1-40.5,64.6-40.5,105.3v9.4h-90.5v-9.4
			c0-38.6-16-77.1-42.6-106.3c-23.4-25-33-57.3-28.8-90.7c7.5-50,54-97,116.1-97c65,0,117.2,51.1,117.2,112.6
			C373.3,184.9,362.6,212,342.4,232.9z"/>
		<polygon class="st0" points="385.1,38.4 400,53.3 436.5,18.2 421.5,3.3 		"/>
		<rect x="448.8" y="167.2" class="st0" width="52.2" height="20.9"/>
		<rect x="11" y="167.2" class="st0" width="52.2" height="20.9"/>
		<polygon class="st0" points="90.1,3.2 75.1,18.1 111.6,53.2 126.5,38.3 		"/>
	</g>
</g>
</svg>
