<?xml version="1.0" encoding="utf-8"?>
<!-- Generator: Adobe Illustrator 21.0.0, SVG Export Plug-In . SVG Version: 6.00 Build 0)  -->
<svg version="1.1" id="Capa_1" xmlns="http://www.w3.org/2000/svg" xmlns:xlink="http://www.w3.org/1999/xlink" x="0px" y="0px"
	 viewBox="0 0 50 50" style="enable-background:new 0 0 50 50;" xml:space="preserve">
<style type="text/css">
	.st0{opacity:0.5;}
	.st1{fill:#2F3129;}
	.st2{fill:#FFFFFF;}
</style>
<g class="st0">
	<path class="st1" d="M7.7,31.8C4.3,28.7,2,24.8,1,20.5c-0.7-3.1-0.4-4.9-0.4-4.9C1.3,8,6.5,2.5,13.2,2.5c4.9,0,9.2,3,11.2,7.8
		l0.5,1.1l0.5-1.1c2-4.8,6.5-7.8,11.5-7.8c6.6,0,11.9,5.5,12.6,13.1c0,0.1,0.3,1.8-0.4,5c-1,4.3-3.3,8.2-6.7,11.2L24.9,47.3
		L7.7,31.8z"/>
	<path class="st2" d="M13.2,3c4.7,0,8.8,2.9,10.8,7.5l0.9,2.2l0.9-2.2C27.7,6,32,3,36.8,3c6.4,0,11.4,5.3,12.1,12.6l0,0.1l0,0
		c0,0,0.3,1.7-0.4,4.7c-1,4.2-3.3,8-6.6,11L24.9,46.7L8.1,31.4c-3.3-3-5.6-6.8-6.6-11c-0.7-3-0.4-4.7-0.4-4.7l0-0.1l0-0.1
		C1.7,8.3,6.8,3,13.2,3 M13.2,2C5.9,2,0.7,8.2,0.1,15.5c0,0-0.4,1.8,0.4,5.1c1.1,4.5,3.5,8.5,6.9,11.5L24.9,48l17.7-15.8
		c3.4-3,5.8-7,6.9-11.5c0.8-3.3,0.4-5.1,0.4-5.1C49.3,8.2,44.1,2,36.8,2c-5.4,0-10,3.3-12,8.1C22.8,5.3,18.5,2,13.2,2L13.2,2z"/>
</g>
</svg>
