<?xml version="1.0" encoding="utf-8"?>
<!-- Generator: Adobe Illustrator 21.0.0, SVG Export Plug-In . SVG Version: 6.00 Build 0)  -->
<svg version="1.1" id="Capa_1" xmlns="http://www.w3.org/2000/svg" xmlns:xlink="http://www.w3.org/1999/xlink" x="0px" y="0px"
	 viewBox="0 0 512 512" style="enable-background:new 0 0 512 512;" xml:space="preserve">
<style type="text/css">
	.st0{fill:#FFFFFF;stroke:#FFFFFF;stroke-width:3;stroke-miterlimit:10;}
	.st1{fill:#FFFFFF;}
</style>
<path class="st0" d="M108.9,26.7c-36.8,0-41.6,27.1-43.7,60.4l-4.9,94.4c-1.4,35.4-5.6,63.1-45.1,74.9
	c39.6,11.1,43.7,38.9,45.1,74.9l4.9,93.7c2.1,34,6.9,60.4,43.7,60.4h17.3v13.9h-20.8c-43,0-52.7-31.2-54.8-70.1l-4.9-96.5
	c-1.4-38.2-4.2-60.4-45.8-68V248c41.6-8.3,44.4-29.8,45.8-68.7l4.9-96.5c2.1-38.2,11.8-70.1,54.8-70.1h20.8v13.9H108.9z"/>
<path class="st0" d="M405.8,12.8c43.7,0,52.7,31.9,54.8,70.1l4.9,96.5c1.4,38.9,4.2,60.4,46.5,68.7v16.7
	c-42.3,7.6-45.1,29.8-46.5,68l-4.9,96.5c-2.1,38.9-11.1,70.1-54.8,70.1H385v-13.9h17.3c36.8,0,41.6-26.4,43.7-60.4l4.9-93.7
	c1.4-36.1,5.6-63.8,45.1-74.9c-39.6-11.8-43.7-39.6-45.1-74.9L446.1,87c-2.1-33.3-6.9-60.4-43.7-60.4H385V12.8H405.8z"/>
<g>
	<circle class="st1" cx="256" cy="256" r="34.9"/>
	<circle class="st1" cx="158.9" cy="256" r="34.9"/>
	<circle class="st1" cx="353.1" cy="256" r="34.9"/>
</g>
</svg>
