<?xml version="1.0" encoding="iso-8859-1"?>
<!-- Generator: Adobe Illustrator 16.0.0, SVG Export Plug-In . SVG Version: 6.00 Build 0)  -->
<!DOCTYPE svg PUBLIC "-//W3C//DTD SVG 1.1//EN" "http://www.w3.org/Graphics/SVG/1.1/DTD/svg11.dtd">
<svg xmlns="http://www.w3.org/2000/svg" xmlns:xlink="http://www.w3.org/1999/xlink" version="1.1" id="Capa_1" x="0px" y="0px" width="512px" height="512px" viewBox="0 0 70.403 70.403" style="enable-background:new 0 0 70.403 70.403;" xml:space="preserve">
<g>
	<path d="M69.114,67.818H3.937l19.444-29.67l7.129,22.402l9.686-37.106l8.339,12.685l19.439-22.099l-0.004,9.493   c0,0.626,0.508,1.126,1.131,1.126c0.625,0,1.127-0.502,1.127-1.126l0.005-13.133h-13.14c-0.629,0-1.126,0.504-1.126,1.125   c0,0.626,0.506,1.13,1.126,1.13h9.081L48.795,32.405l-9.508-14.454L30.29,52.414l-6.197-19.485L2.425,65.994V1.13   C2.425,0.504,1.919,0,1.295,0S0.167,0.509,0.167,1.13v68.944H0.86c0.049,0.051,0.086,0.107,0.147,0.146   c0.192,0.125,0.407,0.183,0.622,0.183c0.281,0,0.535-0.135,0.747-0.333h66.733c0.626,0,1.127-0.505,1.127-1.127   C70.239,68.32,69.732,67.818,69.114,67.818z" fill="#FFFFFF"/>
</g>
<g>
</g>
<g>
</g>
<g>
</g>
<g>
</g>
<g>
</g>
<g>
</g>
<g>
</g>
<g>
</g>
<g>
</g>
<g>
</g>
<g>
</g>
<g>
</g>
<g>
</g>
<g>
</g>
<g>
</g>
</svg>
